<?xml version="1.0" standalone="no"?>
<!DOCTYPE svg PUBLIC "-//W3C//DTD SVG 20010904//EN"
        "http://www.w3.org/TR/2001/REC-SVG-20010904/DTD/svg10.dtd">
<svg version="1.0" xmlns="http://www.w3.org/2000/svg"
     width="900" height="200" viewBox="0 0 1000 500"
     preserveAspectRatio="xMidYMid meet">

    <g transform="translate(-1000,2200) scale(0.1,-0.1)"
       fill="#fdc40a" stroke="none">
        <path d="M6290 21275 c-230 -27 -451 -91 -661 -193 -170 -82 -232 -125 -341
 -234 -191 -191 -311 -387 -370 -606 -29 -106 -31 -348 -4 -437 44 -149 150
 -267 301 -335 79 -36 215 -70 282 -70 l52 0 -29 43 c-59 88 -100 254 -100 407
0 412 157 746 440 937 92 62 280 144 280 122 0 -9 -88 -406 -224 -1009 -30
 -135 -116 -522 -191 -860 -75 -338 -142 -642 -150 -675 -8 -33 -60 -267 -115
 -520 -56 -253 -103 -468 -106 -477 -5 -17 13 -18 270 -18 152 0 276 3 276 6 0
6 158 687 210 909 11 44 37 159 60 255 22 96 54 231 70 300 16 69 79 341 140
605 61 263 112 481 114 482 2 2 52 -193 111 -434 216 -880 409 -1663 464
 -1888 l57 -230 350 -3 349 -2 68 312 c38 172 82 372 98 443 33 148 198 901
234 1075 14 63 43 196 65 295 111 496 390 1787 390 1806 0 5 -102 9 -240 9
 -132 0 -240 -2 -240 -4 0 -7 -102 -465 -155 -696 -39 -173 -211 -947 -300
 -1355 -138 -634 -169 -771 -175 -777 -5 -7 -26 76 -135 557 -87 382 -297 1294
 -335 1455 -44 186 -118 507 -150 650 -11 52 -25 112 -31 132 l-9 37 -253 -1
c-139 0 -304 -6 -367 -13z"/>
        <path d="M19058 21109 c-76 -11 -159 -53 -218 -109 -244 -232 -123 -646 208
 -710 181 -36 372 60 455 229 30 62 32 71 32 181 0 104 -3 121 -27 172 -55 117
 -168 206 -295 233 -75 16 -74 16 -155 4z"/>
        <path d="M14780 21033 c0 -5 -27 -132 -60 -283 -82 -373 -136 -627 -171 -800
 -41 -202 -31 -189 -93 -133 -150 137 -356 200 -556 173 -195 -27 -356 -115
 -542 -296 -171 -167 -360 -443 -474 -690 -78 -169 -160 -459 -183 -649 -40
 -334 84 -702 295 -877 189 -156 488 -185 747 -71 105 45 197 112 326 238 71
69 126 115 128 108 15 -42 116 -178 175 -235 115 -112 242 -160 428 -162 169
 -1 315 52 475 173 43 33 80 59 82 57 1 -1 -6 -49 -17 -107 -11 -57 -20 -110
 -20 -117 0 -10 74 -12 357 -10 l357 3 18 110 c54 329 171 856 229 1033 84 254
285 402 472 348 137 -40 171 -170 126 -491 -31 -218 -35 -593 -7 -688 47 -164
193 -294 395 -349 101 -27 337 -29 453 -4 184 41 354 170 489 371 25 38 50 72
55 75 5 3 17 -18 27 -47 69 -205 209 -346 377 -382 74 -15 306 -14 394 3 154
30 248 81 403 221 65 59 95 80 95 68 -1 -10 -11 -75 -24 -145 l-23 -128 357 0
357 0 82 418 c216 1088 293 1411 373 1551 73 129 204 222 310 222 128 0 187
 -65 188 -207 0 -128 -30 -312 -138 -834 -38 -184 -75 -379 -82 -433 -41 -321
58 -604 248 -705 254 -136 634 -65 927 172 50 40 116 104 148 142 32 38 61 70
65 71 4 1 24 -35 45 -81 71 -151 175 -265 287 -315 73 -31 186 -44 333 -38
230 10 336 50 470 177 45 43 116 123 157 178 l74 100 51 -92 c56 -103 126
 -197 180 -244 140 -124 401 -148 542 -50 196 134 390 387 381 495 -3 34 -6 38
 -33 41 -16 2 -65 -4 -108 -14 -85 -19 -139 -13 -193 23 -36 23 -64 84 -64 138
0 123 11 176 333 1705 124 586 233 1101 241 1145 9 44 18 90 21 103 l5 22
 -384 0 -385 0 -10 -52 c-6 -29 -58 -300 -116 -603 -58 -302 -108 -558 -111
 -568 -5 -15 -20 -4 -84 57 -173 165 -374 213 -605 142 -236 -72 -395 -160
 -547 -303 -96 -91 -80 -72 -202 -238 -202 -275 -299 -529 -352 -925 -18 -133
 -24 -430 -11 -517 l8 -53 -68 -50 c-114 -84 -224 -114 -336 -90 -69 14 -113
48 -140 110 -17 36 -21 65 -20 145 1 115 -3 98 138 650 l108 420 4 150 c6 187
 -11 298 -62 401 -40 83 -138 187 -206 221 -108 53 -244 66 -414 38 -164 -26
 -253 -66 -410 -180 l-111 -81 18 90 c9 50 18 101 18 114 l0 22 -382 -2 -382
 -3 -126 -630 c-168 -832 -196 -961 -237 -1080 -46 -133 -94 -218 -164 -288
 -69 -69 -131 -98 -219 -105 -83 -6 -155 23 -204 79 -45 53 -58 104 -57 224 0
117 10 186 51 370 30 136 290 1414 290 1428 0 4 -163 7 -363 7 l-363 0 -58
 -272 c-134 -635 -240 -1113 -277 -1251 -94 -351 -178 -500 -317 -565 -50 -24
 -69 -27 -162 -27 -94 0 -110 3 -154 26 -31 16 -56 39 -68 60 -26 49 -23 160 8
294 78 341 107 572 85 691 -34 186 -177 329 -357 355 -40 6 -135 8 -224 4
 -126 -4 -152 -3 -140 7 9 7 87 67 175 134 88 66 285 215 439 332 l278 212
 -227 0 -227 0 -276 -219 c-153 -120 -362 -286 -467 -369 -104 -83 -190 -150
 -191 -149 -2 2 69 353 290 1442 43 209 80 383 82 387 3 5 -166 8 -374 8 l-380
0 -15 -67 c-8 -38 -27 -129 -42 -203 -14 -74 -37 -187 -50 -250 -13 -63 -56
 -268 -95 -455 -213 -1022 -305 -1456 -340 -1600 -61 -253 -128 -431 -195 -519
 -57 -75 -227 -127 -318 -97 -83 28 -118 80 -122 185 -4 130 35 343 219 1196
55 253 94 439 141 660 13 63 42 198 65 300 91 415 180 830 180 840 0 7 -124
10 -370 10 -203 0 -370 -3 -370 -7z m-433 -1364 c106 -51 130 -172 82 -419
 -53 -273 -220 -949 -264 -1065 -57 -154 -142 -263 -243 -312 -47 -23 -70 -28
 -132 -28 -98 0 -155 27 -206 97 -149 202 -120 554 94 1143 135 373 254 530
447 591 66 21 172 17 222 -7z m9505 6 c45 -18 94 -74 107 -122 31 -109 10
 -243 -129 -823 -131 -545 -169 -652 -280 -773 -74 -81 -142 -112 -245 -112
 -69 0 -86 4 -126 27 -107 63 -171 210 -171 398 -1 103 3 131 34 290 64 334
244 805 363 952 53 66 158 139 230 161 64 20 173 21 217 2z"/>
        <path d="M9675 20015 c-130 -24 -305 -99 -450 -193 -296 -191 -535 -513 -664
 -897 -91 -270 -137 -538 -126 -740 16 -294 96 -510 250 -674 50 -52 85 -78
162 -118 291 -150 561 -162 817 -33 179 89 395 271 522 439 158 209 289 575
344 961 12 85 24 157 26 159 2 2 48 10 101 17 152 20 197 32 265 74 35 21 65
36 67 35 1 -2 -13 -82 -32 -177 -19 -95 -49 -245 -66 -333 -17 -88 -76 -389
 -131 -669 -55 -279 -100 -510 -100 -512 0 -2 165 -3 367 -2 l368 3 12 65 c7
36 37 182 68 325 31 143 65 303 75 355 11 52 44 208 74 345 29 138 84 394 121
570 77 362 63 331 199 441 89 71 151 97 237 98 97 1 130 -36 148 -168 6 -42
16 -86 22 -98 19 -36 92 -60 185 -60 111 0 171 28 269 127 100 99 130 163 130
275 0 72 -4 94 -28 145 -68 145 -180 203 -370 192 -84 -4 -96 -8 -201 -60 -61
 -31 -183 -101 -271 -156 -88 -54 -161 -98 -162 -97 -3 2 33 222 42 264 l5 22
 -383 0 -383 0 -78 -353 -79 -354 -85 -32 c-46 -17 -128 -39 -181 -48 -83 -15
 -103 -15 -145 -3 -26 7 -49 18 -51 24 -1 6 -8 56 -14 111 -21 187 -70 352
 -135 455 -48 75 -149 173 -216 209 -32 18 -94 41 -137 52 -98 26 -289 33 -388
14z m329 -266 c87 -24 172 -142 182 -253 7 -72 -9 -98 -71 -113 -66 -17 -95
 -39 -124 -96 -17 -34 -25 -71 -29 -132 -6 -102 1 -115 87 -171 33 -21 63 -44
65 -51 7 -16 -19 -187 -50 -342 -75 -367 -256 -672 -458 -771 -193 -95 -349
 -11 -386 210 -16 96 -21 339 -9 465 24 261 108 553 233 810 87 181 150 279
219 341 105 94 233 133 341 103z"/>
    </g>
</svg>