<?xml version="1.0" standalone="no"?>
<!DOCTYPE svg PUBLIC "-//W3C//DTD SVG 20010904//EN"
 "http://www.w3.org/TR/2001/REC-SVG-20010904/DTD/svg10.dtd">
<svg version="1.0" xmlns="http://www.w3.org/2000/svg"
 width="3000.000000pt" height="3000.000000pt" viewBox="0 0 3000.000000 3000.000000"
 preserveAspectRatio="xMidYMid meet">

<g transform="translate(0.000000,3000.000000) scale(0.100000,-0.100000)"
   stroke="none">
<path d="M14820 28567 c-3 -3 -99 -8 -215 -12 -115 -3 -223 -8 -240 -10 -16
-2 -82 -6 -145 -10 -168 -9 -554 -46 -754 -71 -2512 -323 -4830 -1305 -6786
-2875 -1770 -1420 -3148 -3240 -4030 -5324 -483 -1141 -819 -2399 -965 -3620
-8 -71 -17 -148 -20 -170 -8 -63 -33 -341 -40 -440 -3 -49 -8 -106 -10 -125
-2 -19 -7 -96 -10 -170 -3 -74 -8 -169 -10 -210 -18 -295 -12 -1064 9 -1305 3
-27 8 -99 11 -160 7 -129 30 -402 45 -530 6 -49 13 -108 15 -130 12 -106 47
-380 60 -460 8 -49 17 -110 20 -135 18 -121 101 -560 146 -760 174 -786 429
-1592 734 -2315 83 -197 125 -292 235 -530 193 -421 522 -1020 818 -1490 855
-1357 2031 -2630 3327 -3601 706 -529 1380 -943 2176 -1333 936 -460 1853
-788 2878 -1031 453 -107 1099 -219 1531 -265 30 -3 71 -8 90 -10 73 -10 349
-34 455 -41 61 -3 112 -8 115 -9 3 -2 91 -6 195 -10 105 -4 204 -9 220 -10 42
-5 972 -6 1015 -1 19 3 107 7 195 11 88 3 178 8 200 10 22 2 78 6 125 10 131
9 342 29 490 46 47 5 108 12 135 14 28 3 102 13 165 22 3320 454 6315 2089
8499 4637 1318 1538 2272 3348 2800 5311 130 486 247 1057 316 1545 14 102 28
196 30 210 7 44 43 372 49 445 9 96 18 194 21 228 2 15 7 80 10 145 4 64 8
133 10 152 25 226 25 1371 1 1570 -2 14 -7 90 -11 170 -4 80 -8 147 -10 150
-1 3 -6 50 -10 105 -4 55 -8 106 -10 115 -1 8 -6 47 -9 85 -4 39 -9 86 -11
105 -48 406 -58 475 -111 790 -383 2268 -1370 4451 -2823 6240 -570 702 -1215
1354 -1908 1930 -1381 1148 -3001 2018 -4728 2540 -772 233 -1552 395 -2330
484 -303 35 -293 34 -450 46 -77 5 -160 12 -185 15 -25 2 -106 7 -180 11 -74
3 -148 8 -165 10 -41 6 -970 16 -975 11z m915 -387 c1878 -86 3637 -538 5300
-1360 1577 -781 3002 -1889 4160 -3236 1811 -2107 2911 -4734 3139 -7494 35
-417 41 -577 41 -1110 0 -532 -6 -696 -41 -1105 -230 -2757 -1318 -5364 -3119
-7470 -530 -619 -1163 -1233 -1795 -1739 -146 -117 -514 -395 -625 -472 -222
-154 -296 -204 -445 -300 -919 -593 -1849 -1047 -2865 -1399 -1168 -404 -2317
-628 -3630 -706 -416 -25 -1266 -14 -1690 22 -66 5 -147 12 -180 15 -706 59
-1517 202 -2248 399 -1888 506 -3663 1443 -5151 2719 -475 407 -1007 937
-1417 1411 -947 1095 -1723 2369 -2261 3710 -934 2330 -1184 4903 -717 7375
661 3499 2705 6574 5689 8555 1995 1326 4287 2073 6700 2184 250 12 907 12
1155 1z"/>
<path d="M14800 27843 c-2421 -67 -4739 -801 -6755 -2138 -732 -486 -1321
-970 -1976 -1624 -351 -352 -550 -568 -810 -881 -2000 -2409 -3048 -5441
-2959 -8558 13 -428 49 -943 85 -1212 3 -19 14 -105 25 -190 187 -1432 659
-2912 1348 -4225 1388 -2647 3657 -4735 6402 -5892 1027 -434 2078 -724 3195
-882 1113 -157 2326 -165 3465 -20 154 19 181 23 380 54 242 37 620 112 915
181 2033 476 3964 1472 5530 2852 1718 1514 2981 3406 3706 5552 346 1022 550
2024 638 3135 48 600 46 1393 -4 2025 -212 2647 -1225 5134 -2924 7180 -429
516 -973 1072 -1486 1516 -1158 1004 -2485 1790 -3930 2329 -1536 572 -3187
844 -4845 798z m860 -298 c36 -2 126 -7 200 -10 74 -3 155 -8 180 -10 25 -3
79 -7 120 -10 41 -3 95 -8 120 -10 25 -3 117 -12 205 -20 88 -9 174 -18 190
-20 17 -2 46 -6 65 -9 19 -3 76 -10 125 -16 166 -21 573 -90 793 -134 1390
-282 2739 -805 3952 -1533 702 -422 1334 -889 1965 -1452 161 -144 711 -691
871 -866 1541 -1687 2588 -3749 3038 -5980 79 -388 167 -985 191 -1290 4 -44
8 -89 10 -100 2 -12 6 -70 10 -130 3 -61 8 -117 10 -125 26 -106 26 -1482 0
-1685 -2 -17 -6 -75 -10 -130 -16 -258 -77 -756 -136 -1110 -251 -1503 -789
-2991 -1546 -4270 l-59 -100 -92 -3 c-112 -3 -168 16 -284 100 -145 105 -226
116 -548 72 -19 -3 -60 -9 -90 -14 -170 -29 -579 -39 -740 -20 -118 15 -319
65 -418 105 -161 65 -311 162 -457 296 -108 98 -151 127 -228 151 -76 23 -157
23 -290 -2 -380 -69 -542 -134 -905 -361 -349 -218 -518 -308 -708 -378 -43
-16 -137 -50 -207 -75 -259 -95 -310 -121 -562 -296 -285 -197 -349 -238 -468
-300 -153 -81 -243 -112 -487 -171 -429 -104 -499 -122 -630 -165 -74 -24
-143 -44 -153 -44 -20 0 -271 -83 -393 -130 -73 -28 -78 -28 -172 -19 -210 22
-729 145 -772 184 -9 8 -28 15 -42 15 -52 0 -352 113 -371 140 -7 10 -63 36
-128 58 -140 48 -199 78 -394 195 -665 398 -1157 859 -1388 1297 -164 310
-232 761 -186 1229 78 801 523 1559 1161 1978 298 196 625 277 937 233 87 -12
114 -24 365 -160 222 -121 240 -127 267 -94 11 13 10 30 -6 102 -32 151 -32
158 7 179 25 13 54 17 123 17 202 -2 328 -73 519 -293 127 -148 224 -249 270
-282 73 -54 124 -29 145 72 22 100 56 135 114 118 53 -15 172 -97 259 -178
101 -95 347 -370 397 -444 22 -33 42 -83 57 -141 29 -116 47 -140 105 -144 80
-4 74 -47 70 556 l-3 540 53 12 c30 7 71 21 91 31 110 56 105 127 -19 294 -67
90 -109 159 -243 395 -129 227 -144 248 -340 470 -217 245 -285 330 -300 374
-22 66 22 102 143 115 118 13 167 53 167 134 0 41 -18 59 -120 116 -145 83
-247 163 -492 390 -463 426 -940 697 -1583 896 -222 68 -238 75 -261 110 -13
20 -14 28 -4 40 7 8 19 15 28 15 33 0 94 25 103 42 20 37 -45 107 -206 220
-111 79 -345 181 -533 233 -465 128 -1306 187 -2202 156 -894 -32 -893 -32
-947 -16 -34 10 -61 26 -78 47 -25 30 -27 37 -21 98 4 36 9 95 12 133 11 119
-20 125 -201 35 -122 -61 -125 -63 -125 -96 l0 -33 30 16 c16 8 36 15 45 15 8
0 43 11 76 25 77 33 93 25 109 -51 17 -81 6 -137 -36 -183 -40 -45 -43 -64
-11 -77 28 -13 1365 0 1602 15 94 6 222 16 285 22 146 15 304 7 500 -25 85
-13 229 -34 320 -46 405 -53 624 -97 822 -166 110 -38 346 -153 367 -178 21
-25 4 -51 -59 -95 -67 -47 -81 -77 -56 -115 30 -46 82 -73 361 -188 328 -135
391 -159 585 -223 238 -78 400 -162 603 -313 125 -93 225 -180 472 -410 256
-239 299 -283 315 -323 15 -36 4 -98 -20 -109 -8 -4 -30 -15 -48 -25 -25 -12
-45 -15 -78 -10 l-44 6 14 -39 c39 -110 105 -206 246 -357 51 -55 114 -131
140 -170 26 -38 73 -105 104 -149 41 -57 56 -87 56 -111 0 -21 9 -44 24 -62
13 -15 38 -53 56 -83 19 -30 48 -73 65 -95 17 -22 37 -56 45 -75 7 -19 31 -68
52 -108 38 -72 50 -132 26 -132 -7 1 -24 7 -38 15 -49 28 -132 13 -101 -18 6
-6 11 -29 11 -50 0 -27 8 -48 25 -69 14 -16 25 -38 25 -49 0 -10 12 -25 28
-33 17 -9 33 -30 44 -60 l17 -45 -26 -19 -26 -19 16 -84 c9 -46 19 -104 22
-129 7 -49 34 -603 30 -608 -2 -2 -38 37 -80 85 -43 48 -88 93 -100 100 -12 7
-49 49 -82 95 -129 177 -339 354 -543 458 -39 20 -54 22 -119 16 -40 -3 -80
-11 -86 -16 -7 -6 -18 -31 -24 -56 -21 -83 -59 -70 -168 58 -41 49 -104 109
-141 135 -37 26 -87 63 -112 82 -102 77 -274 133 -494 161 -93 12 -96 10 -96
-67 0 -48 -2 -53 -25 -59 -32 -8 -31 -25 2 -83 29 -54 27 -75 -13 -93 -24 -11
-29 -9 -89 58 -51 57 -100 94 -242 184 -270 173 -526 344 -648 435 -151 112
-189 137 -271 178 -113 57 -172 70 -329 72 -123 2 -148 5 -210 28 -48 18 -90
27 -134 27 -79 0 -115 -23 -157 -104 -19 -37 -38 -59 -56 -65 -18 -6 -28 -19
-33 -40 -12 -54 -8 -57 -203 189 -249 314 -388 453 -577 576 -219 142 -358
187 -907 294 -228 44 -250 46 -323 26 -73 -19 -294 -116 -321 -140 -13 -13
-33 -55 -48 -106 -15 -47 -33 -96 -41 -110 l-14 -25 -1 28 c0 39 -13 33 -38
-18 -27 -56 -27 -58 -3 -45 30 15 31 13 16 -32 -7 -24 -16 -55 -19 -71 -6 -23
-9 -26 -26 -17 -25 13 -30 13 -30 -4 0 -20 -48 -56 -74 -56 -32 0 -104 49
-157 106 -25 27 -74 79 -109 116 -93 100 -378 285 -625 405 -179 87 -327 133
-620 192 -338 67 -447 82 -600 82 -153 0 -262 -19 -352 -60 -35 -17 -113 -44
-174 -61 -166 -46 -238 -89 -286 -170 -12 -20 -37 -38 -82 -57 -82 -34 -132
-66 -244 -160 -106 -88 -145 -109 -239 -127 -91 -18 -112 -26 -165 -64 -42
-31 -87 -111 -127 -224 -20 -55 -47 -75 -121 -89 -77 -14 -187 2 -421 62 -187
48 -207 51 -329 52 -116 1 -138 -1 -200 -24 -72 -26 -73 -27 -61 -84 6 -28 6
-28 -5 -7 -7 12 -17 22 -23 22 -16 0 -58 -30 -74 -52 -7 -10 -40 -36 -72 -58
-33 -22 -71 -56 -86 -75 -14 -19 -34 -35 -44 -35 -18 0 -228 -214 -560 -570
-89 -96 -168 -175 -174 -175 -6 0 -17 -13 -25 -30 -8 -16 -33 -50 -55 -75 -26
-27 -55 -77 -75 -125 -49 -118 -89 -175 -123 -175 -17 0 -29 -7 -33 -19 -3
-10 -14 -26 -25 -36 -11 -10 -20 -28 -20 -40 0 -60 -176 -245 -364 -383 -65
-48 -164 -121 -219 -162 l-101 -75 -39 -135 c-42 -150 -145 -501 -183 -625
-22 -72 -28 -82 -65 -105 -48 -30 -137 -139 -176 -216 -51 -101 -58 -113 -91
-146 -18 -18 -43 -46 -56 -61 -13 -15 -65 -48 -116 -72 -137 -67 -171 -94
-335 -260 -142 -144 -154 -153 -223 -179 -40 -16 -91 -30 -113 -33 -32 -5 -39
-9 -33 -22 13 -31 34 -104 34 -118 0 -7 -8 -17 -17 -20 -10 -4 -21 -11 -24
-16 -4 -5 -20 -11 -36 -12 -15 -1 -55 -19 -88 -40 -76 -49 -197 -105 -227
-105 -13 0 -28 8 -35 19 -20 31 -173 361 -173 372 0 5 15 15 33 21 83 30 186
91 242 145 34 32 74 68 90 79 l30 22 -48 23 -49 24 -26 -33 c-16 -19 -36 -32
-49 -32 -26 0 -122 -55 -140 -80 -8 -11 -31 -20 -60 -23 -26 -3 -56 -7 -67 -9
-15 -2 -30 23 -83 147 -408 958 -708 2043 -857 3095 -19 135 -37 270 -41 300
-3 30 -8 71 -10 90 -11 81 -44 465 -50 585 -4 72 -9 141 -11 155 -3 14 -7 221
-11 460 -8 624 10 1001 82 1675 24 219 82 602 130 855 139 726 326 1396 585
2095 389 1052 965 2110 1664 3055 788 1066 1750 2005 2876 2807 326 232 869
569 1255 778 957 519 2058 937 3105 1180 346 81 845 173 1130 210 69 9 135 18
148 20 13 2 53 7 90 11 37 3 69 8 72 9 3 2 50 6 105 10 55 4 102 9 105 10 3 2
47 6 98 10 52 4 106 8 120 10 15 2 81 7 147 10 66 4 134 9 150 11 17 1 145 6
285 10 140 4 257 8 259 11 6 4 564 -5 661 -12z m-5853 -14730 c-91 -194 -103
-215 -129 -220 -31 -7 -36 -20 -13 -29 8 -3 15 -10 15 -15 0 -5 -33 -78 -73
-162 -41 -85 -76 -160 -78 -168 -9 -25 -43 61 -43 104 1 22 12 63 27 90 32 64
41 126 27 190 -30 137 -23 190 33 242 38 36 229 156 272 171 69 24 68 23 -38
-203z m841 -7 c18 -18 15 -54 -13 -170 -13 -57 -36 -170 -50 -253 -15 -82 -36
-181 -47 -220 -24 -80 -28 -170 -14 -405 7 -135 11 -158 29 -177 12 -14 32
-23 49 -23 25 0 32 8 62 74 97 209 132 308 127 360 -3 35 27 106 46 106 7 0
13 11 13 26 0 16 21 51 59 97 79 96 117 131 172 156 60 28 96 67 134 144 27
55 34 62 60 62 27 0 30 -4 37 -44 6 -35 -2 -86 -38 -250 -26 -113 -61 -255
-80 -314 -78 -251 -101 -469 -85 -808 6 -118 11 -240 11 -272 0 -55 2 -60 46
-107 26 -28 50 -50 53 -50 4 0 5 17 4 38 -11 174 -14 607 -4 717 19 216 68
504 90 528 4 4 15 -28 26 -70 10 -43 26 -88 35 -101 10 -12 24 -46 30 -75 27
-112 56 -133 134 -98 43 19 46 19 46 2 0 -10 -20 -174 -45 -366 -48 -373 -48
-375 5 -375 27 0 29 4 44 68 8 37 33 173 56 302 63 358 98 512 157 680 97 278
255 495 459 633 81 54 101 58 110 21 12 -46 -4 -424 -21 -519 -24 -133 -70
-267 -131 -384 -50 -96 -58 -121 -95 -300 -144 -696 -179 -1177 -117 -1641 7
-56 17 -92 29 -106 11 -12 19 -35 19 -57 0 -24 5 -37 13 -37 8 0 34 -22 59
-50 25 -27 53 -50 63 -50 23 0 75 54 75 78 0 11 -11 44 -25 75 -14 30 -32 88
-40 129 -8 41 -25 96 -39 124 -53 103 -70 333 -41 549 18 127 55 460 55 491 0
16 22 35 79 73 87 56 132 102 163 165 18 37 24 42 48 38 37 -5 49 16 22 39
-12 9 -22 22 -22 27 0 18 77 79 121 95 24 9 70 26 102 38 76 27 116 64 187
169 59 88 95 125 172 178 l44 30 17 -91 c22 -117 22 -137 -4 -222 -28 -93 -31
-280 -6 -375 51 -191 162 -334 289 -372 36 -11 37 -13 40 -62 2 -28 -3 -71 -9
-95 -27 -93 -12 -193 36 -235 21 -19 21 -19 42 0 17 15 20 26 15 57 -10 58 8
106 79 212 36 53 65 105 65 116 0 10 5 19 10 19 6 0 10 24 11 53 1 59 12 107
21 92 3 -6 11 -27 17 -47 15 -44 34 -62 60 -53 34 10 32 34 -9 135 l-39 99 18
54 c41 117 77 157 143 157 47 0 89 -17 191 -77 47 -27 76 -51 73 -58 -2 -7
-16 -66 -30 -131 -15 -66 -29 -129 -31 -141 -3 -12 -14 -25 -25 -28 -24 -8
-25 -23 -5 -52 13 -18 13 -33 5 -90 -6 -37 -13 -154 -17 -260 l-6 -191 -38
-18 c-67 -30 -69 -36 -71 -190 -1 -91 3 -147 10 -161 7 -12 12 -40 12 -61 0
-33 -6 -45 -32 -67 -26 -22 -39 -26 -80 -24 l-50 3 -57 -86 c-32 -48 -76 -109
-99 -136 -32 -38 -44 -63 -55 -118 -20 -94 -55 -177 -131 -308 -124 -215 -142
-260 -161 -401 -14 -111 -86 -321 -131 -387 -31 -44 -76 -77 -82 -59 -12 37
-65 54 -90 29 -15 -15 -16 -59 -1 -91 9 -19 6 -35 -15 -83 l-25 -59 -62 65
c-221 230 -297 327 -367 466 -81 162 -156 190 -419 159 -83 -10 -165 -15 -186
-11 -73 14 -125 84 -146 200 -15 79 -45 143 -87 182 -30 29 -39 47 -60 135
-14 58 -24 130 -24 172 0 147 -40 411 -99 657 -24 97 -27 130 -23 212 3 58 0
117 -7 145 -17 66 -83 199 -126 252 -34 43 -35 43 -35 16 0 -15 8 -46 19 -69
33 -73 65 -267 57 -354 l-6 -77 -135 -201 c-122 -184 -535 -825 -580 -900 -17
-31 -23 -33 -124 -49 -126 -19 -899 -132 -956 -139 -158 -19 -731 -100 -825
-117 -63 -11 -250 -47 -415 -79 -579 -114 -789 -143 -1045 -144 -155 -1 -205
3 -310 23 -208 39 -263 68 -274 144 -10 64 -58 158 -99 194 -37 33 -91 53
-139 53 -18 0 -31 8 -39 23 -6 12 -27 39 -47 59 l-36 38 22 23 c26 27 28 50 7
67 -37 31 -105 -47 -91 -104 3 -14 21 -42 38 -62 26 -29 29 -37 17 -45 -8 -5
-20 -9 -26 -9 -7 0 -20 -11 -28 -24 -21 -32 -260 -150 -356 -176 -172 -46
-373 -43 -588 11 -165 41 -171 43 -171 73 0 14 5 28 11 32 22 13 48 90 59 174
6 47 20 105 31 129 21 47 18 61 -12 61 -28 0 -54 -65 -69 -165 -14 -106 -36
-165 -60 -165 -27 0 -87 -41 -100 -70 -7 -14 -19 -40 -27 -58 l-14 -33 58 -25
c32 -14 108 -49 168 -79 l110 -54 170 -3 c156 -4 177 -6 254 -33 81 -28 85
-28 113 -12 16 9 37 17 47 17 9 0 39 14 67 32 265 169 453 150 688 -71 153
-145 212 -161 501 -142 88 6 243 15 345 21 275 15 416 50 570 141 129 76 154
81 455 90 366 10 546 33 932 115 432 91 745 143 1308 214 83 11 238 31 345 45
303 41 405 27 465 -64 27 -41 45 -123 45 -211 0 -68 26 -115 75 -136 61 -25
208 -35 340 -23 104 10 128 10 176 -4 76 -23 104 -47 146 -131 61 -122 132
-217 242 -326 58 -58 148 -134 198 -168 124 -84 338 -186 563 -267 302 -110
468 -185 1019 -462 288 -145 587 -292 665 -327 239 -109 474 -182 661 -206
161 -20 269 -61 462 -176 139 -82 205 -110 393 -169 210 -66 343 -100 425
-110 53 -7 55 -8 40 -25 -9 -10 -40 -29 -68 -41 -46 -21 -67 -24 -172 -23 -66
1 -181 1 -255 1 -268 0 -305 2 -385 23 -136 35 -258 100 -377 202 -73 63 -127
86 -323 143 -218 64 -316 115 -417 217 -42 43 -100 94 -128 113 -66 44 -176
79 -315 99 -203 30 -247 44 -450 147 -216 110 -402 186 -620 254 -189 59 -628
171 -716 184 -95 13 -256 -2 -410 -40 -267 -64 -382 -25 -574 194 -97 111
-125 137 -146 137 -11 0 -79 -20 -152 -45 -73 -24 -211 -62 -307 -85 -96 -22
-219 -54 -272 -72 -83 -27 -99 -30 -113 -18 -17 14 -17 17 5 115 6 28 12 91
13 140 3 193 -54 213 -393 144 -639 -132 -947 -287 -1145 -577 -61 -91 -63
-88 -64 120 -1 178 -11 230 -64 331 -96 187 -209 284 -374 323 -54 13 -105 15
-253 11 -303 -8 -427 13 -587 99 -58 31 -95 44 -123 44 -21 0 -113 -22 -202
-49 -476 -143 -816 -208 -1053 -200 -95 4 -104 6 -190 49 -88 44 -91 45 -190
45 -94 0 -105 -2 -175 -36 -103 -49 -300 -173 -330 -208 -37 -42 -267 -219
-322 -247 -93 -47 -168 -22 -184 61 -4 21 -2 89 4 151 27 299 -56 492 -246
570 -31 13 -64 24 -72 24 -10 0 -34 -37 -65 -100 -28 -56 -55 -100 -63 -100
-8 0 -43 -30 -78 -67 -35 -36 -66 -64 -68 -62 -12 12 -209 333 -294 477 -130
221 -306 542 -300 547 6 7 377 -149 518 -218 63 -30 157 -81 209 -111 51 -31
94 -56 96 -56 7 0 45 72 45 84 0 18 -106 116 -178 165 -129 87 -318 164 -569
231 -65 18 -124 35 -132 40 -16 9 111 74 235 120 122 46 245 132 358 251 l96
102 11 -31 c6 -18 14 -32 18 -32 13 0 32 52 38 103 5 45 11 53 74 110 38 33
83 70 101 81 l33 20 -18 -20 c-22 -27 -23 -64 0 -64 31 0 63 41 63 79 0 33 4
39 47 61 27 14 62 38 80 54 43 39 91 43 104 9 5 -13 9 -35 9 -47 0 -31 24 -50
54 -42 31 8 37 24 27 84 -5 35 -4 52 5 58 7 5 14 35 16 67 4 47 1 60 -13 70
-16 12 -15 15 11 47 26 31 31 34 49 22 19 -11 21 -10 21 12 0 13 9 34 19 47
17 21 18 26 5 40 -13 14 -7 35 51 175 79 193 273 586 285 579 5 -3 6 -25 3
-48 -13 -82 -10 -102 15 -105 38 -6 56 53 49 167 l-6 94 69 96 c111 157 386
487 515 618 138 142 152 147 227 90 54 -41 66 -73 50 -130 -39 -135 -71 -261
-67 -265 11 -11 178 81 236 130 35 30 71 57 81 60 22 9 64 73 137 208 l61 115
-6 -70 c-5 -48 -14 -81 -31 -106 -16 -24 -27 -61 -33 -110 -5 -41 -16 -112
-25 -159 -11 -59 -15 -141 -15 -270 1 -145 -2 -195 -15 -229 -8 -24 -14 -45
-12 -47 1 -2 36 30 76 69 56 55 81 89 106 144 37 79 57 93 103 69 56 -29 66
-70 72 -279 l5 -188 65 -62 c36 -34 101 -93 144 -132 43 -38 85 -79 92 -90 8
-12 18 -75 24 -151 18 -223 55 -385 91 -405 36 -19 67 -3 79 39 11 44 2 74
-133 442 -125 343 -170 527 -171 710 -1 149 8 240 29 280 9 18 28 62 42 99 34
90 113 246 169 334 90 141 198 227 285 227 35 0 36 -1 35 -37 -1 -34 2 -38 24
-38 22 0 25 4 24 33 -2 36 5 38 44 18 47 -24 107 -78 169 -151 33 -38 72 -76
86 -84 36 -19 34 -31 -3 -31 -17 0 -46 -7 -66 -15 l-35 -14 26 -50 c14 -28 25
-55 25 -60 0 -6 -13 -26 -30 -44 -34 -39 -37 -58 -15 -77 13 -11 20 -11 40 0
31 17 115 129 115 154 0 10 14 34 30 53 17 18 30 38 30 43 0 20 44 9 92 -22
35 -23 55 -44 65 -71 15 -37 16 -37 39 -22 23 15 30 14 116 -21 187 -74 376
-93 481 -46 26 11 47 18 47 14 0 -4 -7 -29 -15 -55 -58 -191 -86 -681 -77
-1332 7 -442 75 -743 215 -950 84 -124 120 -146 165 -105 27 26 28 46 2 88
-30 49 -94 207 -134 330 -53 164 -78 299 -82 452 -3 79 -11 156 -20 185 -31
103 -30 225 7 763 9 134 35 300 59 367 9 28 10 27 5 -12 -7 -55 10 -129 38
-170 12 -18 41 -44 64 -59 24 -15 43 -31 43 -37 0 -5 -11 -20 -25 -33 -32 -29
-32 -48 1 -81 l26 -26 -1 -239 -2 -238 51 -179 c32 -114 50 -199 50 -233 0
-61 11 -78 52 -78 45 0 69 80 35 118 -42 46 -69 415 -56 737 11 245 25 376 41
386 9 6 13 36 13 96 0 80 2 91 27 124 41 53 58 102 58 168 0 49 4 64 22 81 12
11 25 20 28 20 12 0 49 75 61 125 16 66 45 122 70 138 11 6 44 60 74 119 122
245 285 425 386 428 8 0 20 -5 27 -12z m-3546 -524 c-21 -44 -28 -51 -30 -35
-3 19 40 91 53 91 3 0 -8 -25 -23 -56z m7415 -1492 c31 -48 34 -58 28 -101 -5
-34 -15 -55 -35 -74 -39 -37 -45 -74 -25 -149 29 -106 29 -108 6 -138 -27 -38
-28 -80 -1 -87 23 -6 23 -5 20 -199 -2 -123 1 -148 18 -187 11 -24 25 -48 31
-51 7 -5 11 -42 11 -98 0 -151 26 -282 107 -547 41 -135 81 -257 88 -271 8
-14 17 -46 20 -72 3 -26 11 -50 16 -54 6 -3 29 13 51 37 l41 43 -6 114 c-4 63
-5 113 -3 111 2 -2 38 -62 81 -134 86 -142 209 -313 307 -427 100 -116 94
-101 59 -152 -34 -48 -40 -86 -16 -86 9 0 30 20 47 45 18 25 35 45 38 45 4 0
17 -11 29 -24 16 -17 21 -31 16 -46 -4 -12 -4 -32 -1 -46 8 -30 43 -33 54 -4
7 19 15 14 90 -51 45 -39 82 -74 82 -78 0 -4 -5 -12 -12 -19 -15 -15 17 -29
35 -14 10 8 34 -4 97 -50 157 -111 282 -179 625 -339 99 -46 221 -105 270
-132 138 -74 321 -161 417 -198 l87 -34 3 -40 c2 -33 7 -41 26 -43 18 -3 23 2
28 27 4 17 8 31 11 31 2 0 74 -23 161 -51 86 -28 215 -69 286 -92 71 -23 133
-49 139 -58 15 -24 -56 -109 -91 -109 -46 0 -79 -49 -52 -76 7 -7 -1 -27 -27
-61 -32 -43 -40 -50 -56 -41 -24 13 -66 2 -94 -24 -31 -29 -29 -46 5 -54 15
-3 31 -7 35 -8 5 -1 -30 -45 -78 -99 -47 -53 -89 -96 -93 -95 -19 5 -52 -15
-52 -32 0 -10 -13 -28 -29 -39 -36 -26 -37 -26 -44 -1 -3 12 -14 20 -26 20
-16 0 -23 -11 -34 -47 -12 -41 -19 -48 -53 -60 -148 -52 -286 -19 -719 172
-115 50 -236 102 -267 115 -54 22 -56 24 -42 44 21 30 17 54 -12 83 -26 26
-27 26 -40 8 -18 -24 -18 -64 0 -84 10 -10 -45 4 -154 39 -153 50 -168 57
-164 75 3 12 -4 32 -16 48 -33 42 -90 34 -90 -13 0 -4 16 -11 35 -14 31 -6 53
-22 43 -31 -9 -9 -301 49 -383 76 l-90 30 -31 67 c-17 37 -43 106 -59 154 -15
49 -49 132 -75 185 -85 174 -120 272 -120 333 0 33 -11 83 -26 125 -14 39 -29
89 -34 113 -5 24 -25 79 -44 123 l-35 80 32 -19 c88 -52 146 -82 160 -82 27 0
52 47 40 73 -18 40 -180 231 -240 283 -37 33 -71 74 -92 114 -18 34 -71 113
-117 176 -46 63 -105 159 -132 212 -27 53 -56 111 -65 127 -10 17 -17 43 -17
59 0 93 -45 273 -71 281 -23 8 -31 45 -30 147 1 78 -1 89 -24 116 -25 30 -25
33 -32 269 -5 186 -3 244 7 263 25 48 40 127 51 275 14 207 65 417 110 458 30
28 31 28 51 10 12 -10 36 -42 55 -71z m-3089 -882 c40 -179 60 -300 71 -445
l10 -120 -42 -36 c-39 -34 -41 -38 -29 -63 14 -31 40 -33 75 -6 l26 21 11 -38
c5 -21 13 -54 16 -74 l6 -37 -53 10 c-30 6 -85 8 -124 4 -53 -4 -477 -68 -662
-99 -14 -3 -20 0 -16 7 16 27 306 481 367 574 197 304 299 453 306 445 5 -4
22 -69 38 -143z m2642 -84 c0 -38 0 -38 -22 -24 -29 19 -34 51 -12 72 22 23
34 6 34 -48z m-64 -91 c13 -9 23 -29 27 -55 3 -22 14 -64 25 -93 11 -28 25
-99 32 -156 6 -57 23 -142 37 -190 14 -47 25 -98 25 -113 0 -14 5 -29 13 -31
7 -3 23 -36 35 -74 31 -94 78 -184 183 -353 132 -213 148 -240 142 -251 -4 -5
-13 -9 -21 -9 -13 0 -13 -4 1 -29 21 -42 10 -191 -15 -191 -10 0 -23 7 -30 15
-16 19 -30 10 -30 -20 0 -31 32 -49 75 -42 31 5 33 3 92 -91 98 -158 125 -217
139 -314 9 -57 24 -108 44 -147 17 -35 30 -76 30 -98 0 -41 28 -111 52 -130
13 -11 13 -23 1 -99 -8 -48 -11 -94 -8 -101 7 -21 29 -10 35 18 9 37 36 36 49
-2 14 -40 14 -89 1 -89 -6 0 -47 25 -93 56 -101 69 -261 147 -431 210 -92 35
-131 54 -136 69 -5 11 -16 87 -25 169 -10 82 -29 202 -43 265 -23 109 -26 133
-19 221 1 24 -2 35 -13 38 -12 2 -19 -13 -29 -58 -8 -33 -17 -63 -22 -65 -4
-3 -22 -26 -38 -50 -42 -63 -25 -101 25 -55 l21 21 17 -88 c18 -92 56 -376 51
-381 -10 -11 -311 137 -331 164 -22 28 -211 112 -344 154 -74 22 -187 57 -250
77 -124 38 -260 99 -260 116 0 6 10 38 23 70 19 52 27 62 64 78 83 35 153 131
198 269 38 115 76 194 145 297 84 125 164 279 150 288 -6 3 -10 27 -10 53 0
55 34 132 79 180 17 19 38 48 45 66 11 26 26 38 70 56 l56 24 0 45 c0 25 5 66
11 91 9 43 118 278 129 279 3 1 15 -6 26 -14z m8999 -660 c102 -27 178 -73
343 -205 441 -353 698 -431 1132 -344 173 35 535 37 746 4 38 -6 101 -15 139
-21 170 -25 505 -96 505 -106 0 -4 -30 -54 -66 -113 l-67 -107 -41 4 c-45 5
-158 -23 -650 -158 -160 -44 -392 -105 -516 -135 -452 -109 -523 -140 -680
-290 -94 -90 -101 -92 -201 -41 -78 39 -89 42 -164 42 -86 -1 -65 7 -287 -107
-76 -39 -105 -64 -243 -208 -99 -105 -194 -190 -211 -190 -5 0 -35 -23 -67
-50 -32 -28 -62 -50 -65 -50 -11 0 -116 -149 -145 -205 -14 -27 -65 -95 -112
-150 -48 -55 -114 -144 -147 -198 -33 -53 -64 -99 -68 -102 -5 -3 -18 7 -29
21 -17 21 -21 41 -21 98 0 76 -26 158 -89 282 -19 37 -35 89 -41 134 -12 86
-41 143 -88 172 -71 44 -253 31 -380 -27 -131 -60 -221 -160 -296 -328 -29
-66 -44 -89 -62 -93 -30 -8 -41 0 -49 36 -9 41 -109 173 -179 237 -64 59 -153
105 -237 123 -76 17 -661 7 -857 -14 -452 -49 -542 -70 -652 -156 -43 -33 -91
-50 -143 -50 -29 0 -54 -10 -91 -34 -28 -18 -60 -35 -71 -37 -19 -4 -88 -99
-121 -165 -24 -50 -137 -141 -196 -159 -63 -18 -112 -19 -127 -2 -11 14 31 88
107 187 39 52 40 73 6 105 -53 49 -89 30 -145 -76 -41 -78 -109 -149 -142
-149 -39 0 -72 49 -91 135 -10 46 -14 50 -43 53 -22 2 -38 -3 -53 -18 -20 -20
-22 -28 -15 -99 12 -131 46 -205 109 -235 41 -20 127 -20 181 -1 21 8 41 12
44 10 7 -8 -30 -45 -76 -77 -32 -21 -43 -36 -43 -55 0 -19 -28 -56 -107 -140
-154 -164 -163 -177 -163 -236 0 -75 -19 -126 -53 -144 -28 -14 -30 -14 -64
19 -19 18 -56 71 -82 118 -58 103 -82 117 -133 78 -18 -14 -46 -49 -63 -77
-16 -28 -37 -53 -47 -56 -9 -3 -45 4 -80 16 -123 41 -227 10 -388 -118 -123
-98 -181 -130 -269 -148 -168 -36 -207 -52 -273 -113 -35 -32 -105 -91 -157
-132 -51 -41 -108 -96 -125 -121 -17 -25 -56 -84 -87 -130 -31 -46 -72 -100
-91 -119 -53 -55 -243 -189 -306 -216 -160 -69 -203 -104 -226 -185 -9 -30
-32 -75 -50 -100 -31 -41 -37 -45 -69 -41 -32 4 -39 10 -63 59 -37 73 -127
155 -200 182 -78 30 -154 39 -431 52 -327 16 -387 9 -603 -64 -129 -45 -242
-77 -305 -88 -38 -6 -86 -17 -105 -24 -19 -7 -70 -11 -113 -10 -55 2 -80 -1
-83 -10 -3 -7 -17 -12 -32 -12 -64 0 -178 -17 -192 -28 -8 -7 -37 -16 -65 -20
-27 -4 -70 -13 -95 -20 -25 -8 -119 -21 -210 -29 -91 -9 -232 -23 -315 -32
-133 -14 -238 -14 -252 0 -3 3 5 21 17 40 16 26 29 36 48 37 15 0 36 2 47 4
11 2 101 13 200 25 286 33 647 78 680 85 17 3 64 14 105 25 41 10 111 24 155
30 90 13 280 63 460 120 66 22 205 64 308 95 247 74 547 176 788 269 195 75
623 259 647 279 8 6 27 38 44 71 86 172 232 313 423 408 84 43 233 95 467 164
409 120 466 163 815 594 205 254 287 345 389 429 112 93 202 146 404 241 164
77 254 110 385 140 44 10 125 32 180 49 55 17 224 58 375 91 457 101 582 145
833 291 180 106 442 269 622 389 148 99 220 135 380 194 260 96 383 157 699
345 357 213 461 265 671 338 208 72 364 87 510 48z m2533 -1187 c-123 -178
-296 -416 -347 -478 -17 -20 -21 -22 -21 -7 0 22 -11 22 -42 -2 -13 -11 -36
-23 -49 -26 -14 -3 -47 -23 -74 -43 -51 -39 -74 -84 -61 -119 7 -17 9 -16 26
4 l18 23 11 -31 c10 -28 8 -35 -20 -70 -17 -22 -39 -39 -49 -39 -21 0 -40 -28
-33 -47 4 -11 -148 -204 -166 -211 -4 -1 -19 41 -34 94 -15 53 -36 116 -47
141 -19 44 -21 45 -54 39 -34 -6 -34 -6 -50 41 -23 70 -46 182 -46 229 0 100
74 210 176 260 46 22 61 25 97 19 77 -15 149 -10 193 13 23 12 81 54 129 95
47 40 105 83 128 95 40 20 368 121 376 116 2 -2 -26 -45 -61 -96z m-10678
-135 c22 -58 23 -104 4 -110 -7 -2 -16 16 -23 44 -29 129 -18 166 19 66z m97
-325 c7 -36 -18 -38 -45 -3 -24 31 -37 115 -20 127 14 8 54 -69 65 -124z
m9330 70 c18 -18 33 -35 33 -39 0 -4 -13 -12 -30 -19 -34 -14 -38 -25 -14 -34
12 -5 15 -14 10 -38 -6 -30 6 -58 25 -58 12 0 39 55 39 82 1 21 1 22 11 4 7
-10 9 -41 6 -70 -7 -74 20 -206 48 -231 12 -11 27 -36 34 -55 24 -70 84 -100
141 -70 17 9 20 5 29 -27 6 -21 19 -69 30 -108 l19 -69 -38 -47 c-59 -70 -65
-73 -78 -44 -16 35 -44 31 -82 -11 -36 -41 -37 -73 -2 -90 22 -11 18 -16 -116
-160 -175 -188 -164 -179 -195 -159 -23 14 -25 14 -31 0 -10 -26 -7 -55 5 -55
20 0 -42 -64 -64 -65 -22 -2 -67 -48 -67 -70 0 -7 -28 -41 -62 -74 l-63 -61
-3 75 c-2 63 1 81 23 125 25 49 25 55 23 218 -3 163 -4 167 -25 170 -38 6 -46
-29 -40 -160 3 -66 1 -133 -4 -151 -8 -31 -11 -32 -52 -29 -25 2 -60 -3 -81
-12 -26 -11 -44 -13 -61 -6 -33 13 -49 -16 -41 -79 18 -151 19 -156 48 -159
22 -3 30 2 38 23 5 14 10 40 10 56 0 16 5 29 10 29 6 0 15 11 20 25 5 14 14
25 19 25 5 0 16 3 25 6 14 5 16 -8 16 -113 l0 -118 -89 -83 c-49 -45 -92 -82
-94 -82 -3 0 -32 -26 -64 -58 -32 -31 -86 -81 -120 -110 l-63 -54 -75 116
c-41 63 -75 118 -75 121 0 3 11 5 24 5 32 0 53 26 39 48 -8 13 -22 16 -61 14
-70 -5 -103 22 -192 156 -68 104 -70 107 -48 115 13 5 57 10 100 11 71 1 78
-1 102 -27 50 -54 107 -57 179 -11 30 20 37 30 35 53 -1 16 6 47 16 69 10 23
16 48 13 56 -11 28 -34 17 -50 -21 l-15 -38 -1 45 c-1 25 -21 106 -45 180 -96
294 -98 369 -13 391 20 5 25 -4 59 -100 67 -189 151 -321 203 -321 33 0 47 28
30 60 -33 63 -105 303 -98 328 3 14 25 44 48 67 48 49 99 65 204 65 61 0 72 3
85 22 9 12 16 29 16 38 0 9 17 22 42 30 42 15 57 32 79 95 l11 30 36 -45 c112
-137 189 -195 249 -188 20 2 29 9 31 26 3 18 -5 26 -43 42 -63 27 -85 46 -156
132 -33 40 -70 81 -82 91 -17 15 -19 22 -9 38 7 10 12 39 12 65 0 25 6 58 14
72 8 15 26 53 41 85 14 31 31 57 36 57 6 0 30 -13 54 -30 l43 -29 6 22 c3 12
6 46 6 75 0 63 17 68 67 20z m-16626 -163 c52 -28 53 -40 8 -368 -43 -321 -45
-380 -15 -512 12 -51 23 -76 42 -91 15 -12 24 -28 22 -35 -6 -19 17 -105 36
-135 22 -32 50 -31 122 7 137 73 205 177 250 380 42 193 52 229 53 192 1 -49
44 -87 124 -113 117 -38 119 -54 31 -290 -81 -214 -93 -274 -101 -490 -4 -116
-10 -191 -18 -202 -6 -10 -10 -31 -7 -48 3 -25 7 -28 18 -19 12 10 14 -6 14
-99 0 -110 19 -212 131 -717 23 -103 45 -135 95 -135 39 0 74 38 74 79 0 32
-75 407 -119 599 -33 143 -51 270 -51 368 0 59 2 65 46 118 28 34 44 62 40 71
-8 21 -26 19 -52 -6 l-22 -21 -7 44 c-9 63 10 184 55 348 22 79 41 144 43 146
5 6 85 -274 112 -391 21 -92 25 -136 25 -267 0 -126 3 -160 15 -172 22 -22 52
-29 91 -21 51 9 61 38 40 119 -9 36 -16 93 -16 128 0 35 -7 104 -15 153 -26
156 -21 209 40 446 64 248 87 307 124 316 69 16 129 53 182 112 60 66 76 71
152 50 40 -11 45 -24 23 -67 -17 -34 -35 -302 -46 -682 -6 -200 -13 -301 -23
-339 -32 -118 39 -716 113 -949 35 -107 45 -127 77 -141 29 -14 86 7 102 37 9
16 5 31 -19 76 -16 31 -24 56 -18 56 6 0 20 7 30 17 20 18 25 87 8 113 -8 13
-11 12 -24 -5 -7 -11 -22 -31 -33 -44 l-19 -24 -18 74 c-9 41 -21 110 -26 154
-5 44 -15 130 -24 190 -44 330 -23 627 66 904 46 147 94 244 129 265 35 21 56
59 69 127 6 29 24 74 40 101 17 27 29 57 26 66 -3 9 7 40 22 67 21 39 33 51
55 53 23 3 27 8 27 33 0 26 2 28 19 19 21 -11 18 -50 -4 -50 -15 0 -18 -11
-40 -154 -11 -71 -13 -102 -5 -110 6 -6 33 -10 61 -9 27 0 49 -3 49 -7 0 -5
-18 -100 -39 -212 -35 -184 -38 -214 -34 -318 5 -99 8 -118 27 -138 17 -20 28
-23 60 -19 21 3 46 12 54 21 14 14 14 22 0 81 -12 51 -13 85 -6 162 12 133 23
178 57 221 29 38 97 166 149 282 88 194 236 500 243 500 4 0 16 -15 26 -32 19
-33 19 -33 -4 -103 -13 -38 -35 -89 -49 -112 -21 -37 -24 -53 -24 -143 0 -87
-3 -106 -20 -127 -25 -32 -26 -59 -1 -73 35 -18 57 -11 95 30 20 22 42 40 47
40 19 0 73 52 86 81 14 34 34 45 103 53 69 9 118 41 156 100 19 30 45 54 79
72 27 15 71 42 98 60 39 28 56 34 100 34 83 -1 99 -24 158 -226 53 -182 59
-240 33 -318 -20 -59 -14 -147 17 -252 l22 -73 -22 -27 c-36 -46 -21 -121 22
-110 33 8 43 -3 71 -77 29 -77 77 -170 105 -204 20 -24 72 -39 162 -49 l57 -5
33 -67 c23 -47 34 -85 37 -127 2 -33 10 -64 16 -70 26 -20 37 -58 34 -108 l-3
-52 50 -17 c28 -9 54 -17 58 -17 8 -1 6 25 -18 254 -27 249 -38 457 -31 583 4
70 10 204 15 297 10 197 18 227 103 407 l60 126 65 12 c35 7 67 10 70 6 3 -3
-4 -90 -16 -193 -11 -104 -21 -244 -21 -312 0 -107 3 -133 25 -193 19 -54 25
-86 23 -147 0 -43 2 -83 6 -89 3 -6 31 -22 61 -36 48 -21 55 -29 55 -53 0 -48
20 -102 42 -114 25 -13 75 -5 100 18 26 23 23 80 -8 149 -21 48 -25 69 -22
123 8 131 97 519 128 561 39 52 142 7 192 -85 40 -74 38 -136 -16 -350 -31
-122 -50 -181 -63 -190 -15 -12 -16 -17 -5 -34 6 -12 12 -49 12 -83 0 -77 17
-278 31 -376 l10 -72 -122 -211 c-67 -116 -127 -212 -133 -214 -6 -2 -23 -6
-37 -9 -14 -3 -52 -32 -85 -64 -33 -32 -74 -64 -92 -71 -24 -10 -31 -18 -27
-30 18 -44 17 -83 -4 -130 -11 -27 -21 -60 -21 -73 0 -13 -7 -31 -14 -41 -12
-15 -15 -15 -26 -2 -16 19 -34 19 -51 -1 -10 -13 -10 -20 5 -45 18 -30 18 -31
-4 -54 -14 -14 -21 -32 -18 -43 5 -18 -3 -20 -106 -25 -175 -9 -303 -39 -448
-103 l-76 -34 -79 17 c-43 9 -81 21 -85 27 -4 6 -19 6 -45 -2 -21 -6 -129 -13
-243 -16 -222 -4 -229 -5 -515 -86 -77 -22 -182 -44 -234 -49 -98 -10 -123
-20 -311 -121 -41 -22 -98 -45 -128 -51 -57 -13 -72 -30 -87 -96 -6 -28 -2
-37 25 -64 28 -29 35 -31 75 -25 25 3 66 9 92 13 33 4 56 15 75 34 20 19 42
29 80 34 29 4 64 13 78 20 36 18 198 29 233 16 15 -6 36 -26 47 -44 11 -18 38
-43 60 -56 44 -25 60 -47 60 -84 0 -26 23 -51 49 -53 9 -1 26 -2 39 -3 54 -3
85 -83 40 -100 -13 -5 -31 -18 -42 -30 -18 -20 -18 -21 1 -63 11 -24 26 -60
32 -80 24 -74 112 -106 147 -53 16 24 16 38 -1 135 -10 56 18 75 111 75 83 0
89 4 155 108 17 26 39 52 49 57 11 6 56 8 101 5 60 -3 89 -1 104 9 13 9 71 16
167 21 144 7 148 7 203 -19 73 -33 151 -114 193 -199 25 -50 41 -107 63 -229
32 -176 63 -294 109 -420 l29 -80 -34 -53 -34 -54 -93 25 c-78 21 -298 85
-525 151 -45 14 -52 19 -57 47 -4 18 -12 41 -20 51 -11 15 -9 31 15 108 15 49
33 95 38 100 8 8 19 3 39 -16 34 -32 74 -35 102 -7 26 26 25 44 -6 110 -29 61
-47 170 -48 297 -1 45 -4 84 -7 87 -3 3 -19 8 -35 12 -60 12 -124 -79 -124
-176 0 -42 -63 -200 -88 -218 -54 -40 -116 -115 -152 -184 -23 -43 -43 -78
-46 -78 -3 0 -54 17 -112 38 -90 32 -107 41 -116 65 -13 34 -45 46 -62 22 -12
-16 -24 -13 -169 44 -358 142 -658 277 -1028 463 -287 144 -283 140 -167 174
66 20 80 30 80 58 0 27 -18 46 -42 46 -23 0 -23 13 2 85 29 85 75 161 198 332
132 183 182 274 166 300 -26 42 -62 25 -99 -46 -13 -25 -78 -122 -144 -215
-67 -93 -139 -205 -161 -250 -38 -79 -70 -182 -70 -225 0 -21 -71 -81 -96 -81
-33 0 -601 336 -905 535 -442 290 -913 644 -1284 965 -71 61 -157 134 -190
162 -33 27 -126 113 -207 190 l-148 140 0 74 c0 40 5 120 11 176 13 129 94
532 116 575 9 18 30 42 47 53 17 11 45 29 61 40 38 25 67 25 90 0 18 -20 17
-29 -24 -328 -23 -169 -41 -325 -41 -346 0 -50 23 -76 66 -76 63 0 65 12 63
327 -1 195 2 293 11 328 17 69 101 246 114 242 6 -2 17 -16 25 -31 11 -25 10
-42 -8 -135 -44 -224 -48 -355 -15 -516 26 -125 38 -136 93 -89 51 43 55 57
30 122 -16 42 -22 80 -23 147 -1 79 2 97 28 152 27 59 112 153 174 193 13 8
25 27 26 42 2 15 15 41 30 59 15 18 45 66 66 108 67 134 150 275 171 294 26
21 61 22 100 2z m17429 -55 c-6 -11 -13 -20 -15 -20 -3 0 -5 9 -5 20 0 11 7
20 15 20 13 0 14 -4 5 -20z m-19349 -93 c6 -18 16 -86 24 -151 19 -157 37
-209 91 -261 l42 -42 7 -129 6 -129 -81 85 c-150 158 -190 228 -190 331 0 26
13 107 30 180 46 205 40 187 52 166 5 -10 14 -33 19 -50z m721 -85 c69 -64 74
-168 14 -314 -20 -47 -42 -120 -51 -161 -8 -41 -36 -126 -60 -189 -27 -69 -45
-129 -45 -154 0 -22 -3 -82 -6 -132 l-7 -91 -133 133 -134 133 0 50 c0 156 84
384 225 612 52 85 95 134 125 143 21 7 41 -1 72 -30z m17448 -66 c-6 -19 -19
-36 -30 -39 -29 -7 -25 19 7 61 30 40 40 30 23 -22z m-8745 -74 c-2 -2 -13 2
-25 8 -17 9 -20 14 -9 20 8 6 17 2 25 -8 7 -9 11 -18 9 -20z m-1621 -146 c38
-8 72 -18 76 -23 3 -4 30 -40 59 -80 28 -39 79 -96 111 -127 l59 -54 -9 -309
c-6 -169 -12 -321 -15 -337 -3 -15 2 -69 10 -120 64 -376 88 -472 150 -605 41
-86 44 -96 30 -111 -11 -12 -14 -26 -9 -44 6 -27 27 -35 40 -15 4 8 25 9 59 5
43 -5 55 -3 73 15 12 11 22 24 22 29 0 11 -20 57 -75 175 -120 255 -167 518
-161 904 2 174 5 195 21 207 16 12 21 10 42 -21 27 -40 51 -55 88 -55 81 0
158 99 172 223 3 28 10 60 15 70 18 34 104 12 131 -34 24 -43 60 -54 127 -39
30 7 73 15 94 17 35 5 38 4 31 -13 -63 -145 -63 -233 -5 -459 44 -170 68 -215
117 -215 27 0 63 32 63 56 0 9 -14 58 -32 108 -30 87 -32 97 -32 256 l-1 165
33 3 c25 3 32 -1 32 -14 0 -37 54 -106 141 -179 51 -42 104 -91 118 -108 14
-18 58 -70 98 -116 l72 -84 -21 -54 c-22 -60 -19 -83 12 -83 14 0 26 12 37 38
10 20 18 38 19 40 0 1 18 -4 38 -11 l38 -13 69 -190 c38 -104 69 -190 69 -192
0 -1 -44 -31 -97 -66 -309 -199 -623 -350 -911 -436 -88 -27 -93 -27 -102 -10
-16 29 -12 56 16 121 31 76 29 113 -7 117 -24 3 -28 -3 -57 -83 -32 -88 -39
-142 -23 -173 8 -15 -35 -29 -397 -125 -224 -60 -415 -111 -424 -113 -15 -4
-17 0 -12 23 4 21 0 33 -14 47 -31 27 -56 13 -81 -48 -21 -51 -24 -54 -71 -63
-48 -10 -49 -9 -38 11 6 12 80 141 165 288 l154 266 -7 51 c-4 28 -9 51 -13
51 -6 0 -174 -289 -337 -577 -63 -110 -72 -122 -103 -128 -18 -3 -35 -4 -38
-2 -2 3 56 106 130 228 75 123 181 305 236 404 93 164 101 183 101 232 0 29
-4 53 -10 53 -5 0 -22 -24 -36 -52 -15 -29 -62 -117 -106 -195 -70 -125 -78
-145 -73 -176 11 -55 -20 -101 -60 -92 -17 4 -40 -28 -149 -209 -106 -178
-133 -216 -155 -220 -37 -8 -213 -34 -231 -35 -8 0 -51 -3 -95 -7 l-81 -7 2
29 c1 16 3 34 3 40 1 6 38 72 82 145 45 74 83 139 86 146 2 6 -3 23 -12 37
l-17 26 -94 -157 c-51 -85 -96 -164 -99 -173 -6 -20 -34 -30 -85 -30 -20 0
-46 -7 -58 -16 -18 -12 -23 -13 -26 -2 -2 7 -14 43 -26 79 -31 91 -24 118 55
214 65 77 87 127 83 182 -1 20 26 77 92 190 51 90 96 161 98 158 2 -2 8 -26
13 -52 9 -47 51 -153 167 -423 53 -123 61 -135 86 -138 32 -4 76 22 76 45 0 9
-23 66 -52 127 -93 200 -155 419 -177 628 -21 186 -24 434 -8 581 9 77 17 141
20 143 2 3 17 0 33 -6 44 -17 67 -5 128 65 39 44 65 65 80 65 l22 0 -32 -192
c-18 -106 -33 -221 -34 -255 0 -56 2 -63 31 -87 34 -29 92 -35 122 -12 15 12
16 20 8 57 -15 65 -13 235 4 335 19 109 110 434 135 483 22 44 45 65 90 85 44
19 41 19 124 2z m11006 -190 c0 -2 -8 -10 -17 -17 -16 -13 -17 -12 -4 4 13 16
21 21 21 13z m-1596 -740 c37 -55 66 -103 66 -107 0 -4 -7 -9 -15 -13 -20 -7
-20 -46 1 -46 8 0 24 5 35 10 14 8 25 7 42 -5 32 -20 222 -314 211 -324 -16
-14 -238 -196 -256 -209 -15 -12 -15 -10 -2 34 8 26 14 63 14 82 0 35 -2 38
-107 135 -47 43 -83 33 -83 -23 0 -17 72 -90 89 -90 19 0 19 -31 0 -92 -23
-76 -23 -73 -3 -93 9 -9 15 -17 13 -19 -2 -1 -47 -36 -99 -77 -123 -96 -278
-210 -465 -343 -143 -101 -150 -105 -158 -84 -8 23 -9 23 -23 4 -8 -11 -14
-28 -14 -38 0 -13 -54 -54 -182 -138 -101 -66 -187 -120 -192 -120 -5 -1 -30
50 -56 112 l-48 113 25 7 c60 16 70 58 24 110 -72 83 -161 249 -161 302 0 12
-23 68 -71 172 -27 57 -24 80 20 198 22 57 45 134 52 171 14 79 7 192 -15 253
-15 40 -14 42 3 32 30 -16 68 -66 86 -114 17 -43 16 -49 -4 -141 -28 -126 -28
-147 1 -143 19 3 24 14 38 75 8 39 18 74 21 77 3 3 13 -18 22 -47 26 -82 56
-105 157 -118 96 -13 125 -27 214 -107 64 -57 123 -92 154 -92 19 0 18 -3 -5
-92 -34 -133 -66 -317 -59 -344 9 -34 63 -35 70 -1 3 12 17 83 30 157 41 218
63 287 97 307 37 22 85 90 114 161 39 98 215 453 247 500 42 61 89 113 99 110
4 -2 37 -48 73 -102z m-7189 -6 c61 -11 111 -20 111 -20 1 0 5 -12 9 -27 4
-16 11 -34 17 -40 13 -17 45 -17 51 0 3 7 9 0 16 -16 16 -42 -2 -70 -83 -123
-39 -26 -87 -60 -107 -75 -33 -26 -38 -27 -44 -11 -4 9 -31 88 -60 175 -45
132 -51 157 -37 157 9 0 67 -9 127 -20z m-158 -190 l64 -185 -22 -18 c-12 -10
-23 -16 -24 -15 -1 2 -33 87 -70 190 -57 158 -66 190 -55 203 28 34 43 10 107
-175z m5027 118 c44 -24 100 -73 201 -173 77 -78 161 -153 187 -168 26 -15 91
-39 144 -52 53 -14 105 -30 117 -36 11 -6 37 -9 57 -6 l37 5 7 -90 c5 -60 3
-94 -4 -103 -8 -10 -7 -21 3 -42 8 -15 31 -74 51 -130 19 -57 60 -151 90 -210
73 -145 228 -504 222 -518 -5 -13 -288 -183 -516 -309 -281 -156 -735 -381
-1023 -506 l-88 -39 8 52 c4 29 8 72 8 97 0 41 -2 45 -25 45 -22 0 -25 -5 -32
-55 -4 -30 -13 -81 -19 -112 l-12 -57 -111 -47 c-323 -136 -885 -333 -1251
-438 -104 -30 -190 -54 -191 -53 -1 1 -13 44 -27 94 -38 131 -56 167 -89 171
-41 5 -43 -25 -8 -127 17 -49 31 -107 33 -127 l2 -38 -215 -53 c-118 -29 -289
-69 -380 -88 -91 -20 -175 -37 -187 -40 -18 -4 -1 28 89 167 61 95 150 232
198 305 l88 131 -16 36 c-9 20 -19 36 -22 36 -9 0 -141 -196 -300 -445 -84
-132 -156 -244 -160 -248 -8 -9 -269 -56 -313 -57 -40 0 -119 110 -142 199
-35 128 -87 277 -132 373 -56 119 -53 133 33 133 56 0 58 1 87 41 28 40 28 42
13 73 -9 17 -19 31 -21 31 -3 0 -14 -18 -25 -40 -11 -22 -24 -40 -28 -40 -4 0
-5 27 -4 60 3 38 -1 66 -8 75 -18 22 -99 19 -165 -6 -40 -15 -67 -19 -95 -14
-23 4 -47 2 -60 -5 -21 -11 -22 -17 -16 -72 6 -49 16 -74 54 -131 46 -68 47
-73 51 -156 1 -47 8 -92 13 -98 13 -16 54 -17 63 -3 9 14 7 162 -1 185 -5 12
-4 16 3 12 14 -9 58 -103 94 -199 23 -64 89 -277 89 -290 0 -2 -15 -12 -34
-22 -44 -23 -60 -59 -46 -106 5 -19 6 -37 2 -41 -4 -3 -29 -9 -55 -13 l-48 -6
-24 53 c-30 63 -30 70 -4 150 17 54 19 70 10 105 -7 23 -16 44 -20 47 -15 9
-38 -5 -49 -31 -7 -13 -15 -24 -20 -24 -10 0 -72 102 -72 118 0 7 -14 53 -31
102 l-31 88 -35 -39 c-30 -33 -34 -43 -28 -71 l7 -33 -18 25 c-9 14 -18 26
-19 28 -6 8 -67 -24 -76 -40 -9 -17 -5 -29 24 -72 19 -28 38 -71 42 -95 4 -24
20 -82 36 -129 34 -102 36 -122 10 -122 -11 0 -23 5 -26 10 -12 19 -25 10 -25
-16 0 -15 12 -38 30 -55 18 -19 25 -31 17 -34 -46 -15 -604 -53 -952 -65 -401
-14 -388 -14 -400 13 -13 29 -49 29 -53 -1 -3 -18 -10 -22 -38 -22 -31 0 -38
6 -74 63 -22 34 -42 67 -44 72 -8 23 -62 -22 -86 -72 l-25 -53 -81 0 c-64 0
-83 3 -88 15 -7 18 -33 20 -38 3 -5 -15 -76 -12 -95 4 -9 7 -13 7 -13 -2 0 -9
-24 -11 -102 -6 -187 13 -471 36 -606 51 -74 8 -136 15 -139 15 -3 0 -2 11 1
25 10 37 -9 65 -44 65 -31 0 -50 -22 -50 -59 0 -17 -5 -20 -27 -16 -16 3 -122
18 -238 35 -244 35 -473 74 -482 83 -3 4 51 132 120 284 176 391 180 400 172
440 -10 53 -31 39 -65 -44 -18 -43 -89 -204 -159 -358 -106 -236 -126 -275
-128 -245 -2 19 -8 66 -14 103 -11 67 -12 69 -53 86 -36 16 -107 81 -132 122
-5 8 -26 25 -48 37 -34 20 -37 21 -31 5 56 -130 114 -375 90 -381 -22 -5 -329
69 -337 81 -4 7 -5 21 -2 32 11 35 74 138 141 228 64 85 65 88 48 107 -10 11
-22 20 -26 20 -11 0 -123 -151 -161 -217 -16 -29 -33 -53 -37 -53 -4 0 -12 15
-18 33 -9 31 -5 41 78 175 l88 143 -17 44 -17 44 -58 -93 c-48 -79 -57 -101
-57 -140 0 -26 -7 -63 -16 -84 l-16 -37 -25 54 c-45 101 -122 346 -139 441
-27 159 -5 381 45 450 26 37 68 37 140 1 33 -17 68 -31 77 -31 8 0 39 20 67
44 l50 45 31 -25 c17 -14 44 -35 59 -47 l29 -22 2 -140 c1 -128 5 -154 45
-315 46 -183 50 -192 135 -286 27 -30 50 -62 51 -72 5 -40 17 -54 44 -47 41
10 71 34 71 55 0 11 -16 37 -35 59 -19 21 -35 43 -35 48 0 6 -19 39 -42 74
-22 35 -52 88 -65 117 -32 68 -81 250 -89 327 -6 56 -4 62 20 84 34 32 74 31
119 -4 30 -22 37 -34 37 -61 0 -46 14 -50 36 -9 15 28 24 35 49 35 50 0 58
-11 45 -60 -14 -52 -7 -87 20 -95 25 -8 60 11 60 33 0 9 7 29 14 44 14 27 13
29 -12 43 -45 24 -14 17 49 -11 40 -18 66 -38 79 -59 17 -28 28 -34 70 -40
101 -14 146 16 144 95 -1 26 -9 61 -18 78 -25 48 -21 105 10 141 14 17 29 31
33 31 15 0 50 -128 60 -220 19 -170 49 -237 100 -225 38 9 53 34 47 75 -35
216 -33 399 5 476 34 70 75 94 159 94 36 0 104 -9 151 -21 78 -19 87 -24 131
-71 83 -90 128 -196 183 -433 34 -144 32 -140 62 -175 30 -36 53 -38 90 -6
l28 24 -38 74 c-20 40 -37 83 -37 94 0 12 -7 41 -15 64 -25 72 -21 90 40 150
70 69 85 102 85 187 l1 68 39 -43 c61 -68 136 -223 155 -322 41 -215 49 -236
153 -383 26 -38 57 -74 69 -80 11 -7 32 -20 45 -30 34 -24 54 -13 73 38 22 56
17 79 -18 83 -15 2 -27 7 -27 12 0 5 -7 7 -15 4 -9 -4 -35 11 -64 35 -56 47
-91 121 -91 192 0 40 1 41 28 35 48 -12 76 -41 107 -112 51 -115 50 -114 100
-114 33 0 45 -4 45 -15 0 -8 23 -26 50 -40 44 -22 51 -23 56 -10 7 18 9 17
-36 44 l-35 21 143 0 142 0 0 45 c0 34 5 48 20 57 19 12 27 48 14 61 -4 3 -15
2 -25 -4 -17 -8 -19 -6 -19 20 0 21 15 48 56 95 51 60 60 66 94 66 41 0 87
-27 158 -92 42 -38 97 -68 126 -68 7 0 16 9 19 20 5 19 14 20 144 20 97 0 155
5 192 16 29 8 54 14 55 12 1 -2 8 -22 15 -45 12 -45 23 -51 66 -31 30 13 30
16 9 83 -16 51 -16 54 3 96 11 24 24 53 28 64 6 18 9 16 21 -15 11 -31 13 -16
13 143 -1 147 2 182 15 202 22 33 37 31 65 -5 12 -17 36 -36 53 -43 30 -12 32
-17 69 -172 21 -88 53 -224 71 -302 30 -135 33 -143 55 -143 36 0 63 18 63 42
0 11 -7 41 -15 67 -8 25 -29 109 -47 186 -29 122 -33 158 -34 280 0 196 0 196
46 134 51 -69 121 -119 270 -196 69 -35 153 -79 187 -98 47 -25 70 -32 95 -28
49 7 123 41 148 68 24 26 24 37 -5 135 -9 30 -17 82 -18 115 -2 52 3 69 36
132 52 100 67 179 66 351 0 79 1 146 4 149 3 2 31 -3 62 -13 45 -14 64 -16 95
-7 39 10 40 9 91 -40 28 -27 62 -68 75 -91 22 -37 25 -39 30 -19 l6 21 34 -20
c24 -14 48 -19 87 -17 l54 3 166 -140 c177 -149 200 -179 214 -283 6 -42 5
-43 -15 -32 -11 6 -24 16 -27 21 -3 6 -11 10 -17 10 -7 0 -9 -26 -4 -84 6 -69
4 -87 -9 -99 -20 -21 -19 -24 9 -31 27 -7 86 -69 86 -92 0 -8 -13 -20 -30 -25
-24 -9 -30 -17 -30 -40 0 -40 -22 -80 -82 -153 -28 -33 -55 -73 -60 -89 l-10
-28 -16 22 c-21 30 -114 250 -108 256 2 3 14 0 25 -6 18 -10 23 -7 38 21 26
48 21 147 -10 228 -94 246 -90 229 -83 313 4 42 4 77 2 77 -2 0 -11 3 -19 6
-40 15 -68 -89 -47 -180 6 -26 31 -100 57 -165 52 -131 68 -225 38 -219 -12 2
-23 22 -35 63 -9 33 -29 84 -44 113 -25 49 -29 53 -59 50 -44 -4 -46 -31 -9
-121 16 -40 33 -90 37 -112 4 -22 13 -47 20 -55 8 -9 28 -49 46 -90 46 -108
171 -302 205 -318 38 -17 47 -3 29 47 -18 53 -8 83 57 159 43 50 60 78 89 147
12 29 13 27 31 -64 10 -52 40 -158 66 -235 45 -132 49 -141 75 -144 37 -4 36
4 -23 185 -52 158 -78 289 -67 333 3 14 13 34 21 45 14 19 15 19 37 -10 13
-17 69 -77 124 -135 56 -58 112 -120 124 -137 18 -26 29 -33 55 -33 31 0 34 3
39 37 6 32 2 42 -22 68 -26 27 -81 133 -81 157 0 5 18 25 39 46 23 22 44 54
51 79 12 39 10 51 -17 140 -32 102 -45 195 -47 323 -1 65 3 84 30 140 18 36
45 80 60 98 27 32 34 34 113 41 70 6 87 11 102 30 l19 23 10 -27 c5 -14 10
-30 10 -34 0 -4 13 -21 30 -38 50 -51 106 -51 196 2 86 50 127 138 122 262 -3
69 12 96 65 108 23 6 33 1 61 -29 l33 -37 34 -242 33 -242 45 -85 c45 -83 47
-85 86 -88 22 -2 48 3 58 10 17 12 15 19 -21 109 l-39 96 33 122 c63 231 86
487 65 737 -7 77 -9 148 -5 157 4 12 18 17 44 17 48 0 70 -26 100 -116 30 -88
57 -117 145 -153 144 -60 236 -49 279 35 19 36 21 57 21 244 0 113 4 211 8
218 14 21 56 14 121 -20z m-8346 -1237 c21 -60 20 -61 -69 -61 l-82 0 57 54
c31 30 56 60 56 67 0 19 25 -20 38 -60z m23 -274 c7 -12 6 -19 -3 -22 -24 -8
-223 -27 -348 -34 -73 -4 -135 -12 -149 -20 -24 -14 -109 -34 -211 -51 -30 -5
-71 -16 -90 -23 -120 -48 -241 -80 -320 -84 -119 -7 -226 15 -479 100 l-214
72 889 56 c963 60 896 59 925 6z m4597 -876 c3 -55 1 -62 -15 -59 -11 2 -21
19 -28 48 -10 38 -9 48 3 63 25 29 37 14 40 -52z m-5580 24 c17 -37 15 -59 -8
-80 -19 -17 -22 -17 -37 -3 -14 15 -14 20 3 62 11 25 22 46 25 46 3 0 11 -11
17 -25z m5438 -13 c15 -10 23 -63 14 -87 -9 -22 -7 -24 -38 56 -14 34 -2 49
24 31z m-5513 -118 c13 -5 12 -15 -5 -75 -26 -95 -42 -131 -67 -153 -20 -18
-25 -18 -66 -5 l-44 14 31 64 c30 60 110 161 128 161 5 0 15 -3 23 -6z m11
-260 c8 -22 5 -24 -22 -17 -18 4 -20 8 -11 19 15 18 25 18 33 -2z m5339 -239
c20 -31 33 -62 30 -73 -2 -10 2 -37 10 -60 14 -40 14 -43 -5 -53 -11 -6 -21
-9 -22 -7 -1 2 -16 47 -34 100 -50 152 -42 189 21 93z m-4467 -32 c-1 -1 -12
0 -24 4 -18 4 -20 8 -11 26 11 20 12 20 24 -4 8 -13 12 -25 11 -26z"/>
<path d="M6290 21275 c-230 -27 -451 -91 -661 -193 -170 -82 -232 -125 -341
 -234 -191 -191 -311 -387 -370 -606 -29 -106 -31 -348 -4 -437 44 -149 150
 -267 301 -335 79 -36 215 -70 282 -70 l52 0 -29 43 c-59 88 -100 254 -100 407
0 412 157 746 440 937 92 62 280 144 280 122 0 -9 -88 -406 -224 -1009 -30
 -135 -116 -522 -191 -860 -75 -338 -142 -642 -150 -675 -8 -33 -60 -267 -115
 -520 -56 -253 -103 -468 -106 -477 -5 -17 13 -18 270 -18 152 0 276 3 276 6 0
6 158 687 210 909 11 44 37 159 60 255 22 96 54 231 70 300 16 69 79 341 140
605 61 263 112 481 114 482 2 2 52 -193 111 -434 216 -880 409 -1663 464
 -1888 l57 -230 350 -3 349 -2 68 312 c38 172 82 372 98 443 33 148 198 901
234 1075 14 63 43 196 65 295 111 496 390 1787 390 1806 0 5 -102 9 -240 9
 -132 0 -240 -2 -240 -4 0 -7 -102 -465 -155 -696 -39 -173 -211 -947 -300
 -1355 -138 -634 -169 -771 -175 -777 -5 -7 -26 76 -135 557 -87 382 -297 1294
 -335 1455 -44 186 -118 507 -150 650 -11 52 -25 112 -31 132 l-9 37 -253 -1
c-139 0 -304 -6 -367 -13z"/>
<path d="M19058 21109 c-76 -11 -159 -53 -218 -109 -244 -232 -123 -646 208
 -710 181 -36 372 60 455 229 30 62 32 71 32 181 0 104 -3 121 -27 172 -55 117
 -168 206 -295 233 -75 16 -74 16 -155 4z"/>
<path d="M14780 21033 c0 -5 -27 -132 -60 -283 -82 -373 -136 -627 -171 -800
 -41 -202 -31 -189 -93 -133 -150 137 -356 200 -556 173 -195 -27 -356 -115
 -542 -296 -171 -167 -360 -443 -474 -690 -78 -169 -160 -459 -183 -649 -40
 -334 84 -702 295 -877 189 -156 488 -185 747 -71 105 45 197 112 326 238 71
69 126 115 128 108 15 -42 116 -178 175 -235 115 -112 242 -160 428 -162 169
 -1 315 52 475 173 43 33 80 59 82 57 1 -1 -6 -49 -17 -107 -11 -57 -20 -110
 -20 -117 0 -10 74 -12 357 -10 l357 3 18 110 c54 329 171 856 229 1033 84 254
285 402 472 348 137 -40 171 -170 126 -491 -31 -218 -35 -593 -7 -688 47 -164
193 -294 395 -349 101 -27 337 -29 453 -4 184 41 354 170 489 371 25 38 50 72
55 75 5 3 17 -18 27 -47 69 -205 209 -346 377 -382 74 -15 306 -14 394 3 154
30 248 81 403 221 65 59 95 80 95 68 -1 -10 -11 -75 -24 -145 l-23 -128 357 0
357 0 82 418 c216 1088 293 1411 373 1551 73 129 204 222 310 222 128 0 187
 -65 188 -207 0 -128 -30 -312 -138 -834 -38 -184 -75 -379 -82 -433 -41 -321
58 -604 248 -705 254 -136 634 -65 927 172 50 40 116 104 148 142 32 38 61 70
65 71 4 1 24 -35 45 -81 71 -151 175 -265 287 -315 73 -31 186 -44 333 -38
230 10 336 50 470 177 45 43 116 123 157 178 l74 100 51 -92 c56 -103 126
 -197 180 -244 140 -124 401 -148 542 -50 196 134 390 387 381 495 -3 34 -6 38
 -33 41 -16 2 -65 -4 -108 -14 -85 -19 -139 -13 -193 23 -36 23 -64 84 -64 138
0 123 11 176 333 1705 124 586 233 1101 241 1145 9 44 18 90 21 103 l5 22
 -384 0 -385 0 -10 -52 c-6 -29 -58 -300 -116 -603 -58 -302 -108 -558 -111
 -568 -5 -15 -20 -4 -84 57 -173 165 -374 213 -605 142 -236 -72 -395 -160
 -547 -303 -96 -91 -80 -72 -202 -238 -202 -275 -299 -529 -352 -925 -18 -133
 -24 -430 -11 -517 l8 -53 -68 -50 c-114 -84 -224 -114 -336 -90 -69 14 -113
48 -140 110 -17 36 -21 65 -20 145 1 115 -3 98 138 650 l108 420 4 150 c6 187
 -11 298 -62 401 -40 83 -138 187 -206 221 -108 53 -244 66 -414 38 -164 -26
 -253 -66 -410 -180 l-111 -81 18 90 c9 50 18 101 18 114 l0 22 -382 -2 -382
 -3 -126 -630 c-168 -832 -196 -961 -237 -1080 -46 -133 -94 -218 -164 -288
 -69 -69 -131 -98 -219 -105 -83 -6 -155 23 -204 79 -45 53 -58 104 -57 224 0
117 10 186 51 370 30 136 290 1414 290 1428 0 4 -163 7 -363 7 l-363 0 -58
 -272 c-134 -635 -240 -1113 -277 -1251 -94 -351 -178 -500 -317 -565 -50 -24
 -69 -27 -162 -27 -94 0 -110 3 -154 26 -31 16 -56 39 -68 60 -26 49 -23 160 8
294 78 341 107 572 85 691 -34 186 -177 329 -357 355 -40 6 -135 8 -224 4
 -126 -4 -152 -3 -140 7 9 7 87 67 175 134 88 66 285 215 439 332 l278 212
 -227 0 -227 0 -276 -219 c-153 -120 -362 -286 -467 -369 -104 -83 -190 -150
 -191 -149 -2 2 69 353 290 1442 43 209 80 383 82 387 3 5 -166 8 -374 8 l-380
0 -15 -67 c-8 -38 -27 -129 -42 -203 -14 -74 -37 -187 -50 -250 -13 -63 -56
 -268 -95 -455 -213 -1022 -305 -1456 -340 -1600 -61 -253 -128 -431 -195 -519
 -57 -75 -227 -127 -318 -97 -83 28 -118 80 -122 185 -4 130 35 343 219 1196
55 253 94 439 141 660 13 63 42 198 65 300 91 415 180 830 180 840 0 7 -124
10 -370 10 -203 0 -370 -3 -370 -7z m-433 -1364 c106 -51 130 -172 82 -419
 -53 -273 -220 -949 -264 -1065 -57 -154 -142 -263 -243 -312 -47 -23 -70 -28
 -132 -28 -98 0 -155 27 -206 97 -149 202 -120 554 94 1143 135 373 254 530
447 591 66 21 172 17 222 -7z m9505 6 c45 -18 94 -74 107 -122 31 -109 10
 -243 -129 -823 -131 -545 -169 -652 -280 -773 -74 -81 -142 -112 -245 -112
 -69 0 -86 4 -126 27 -107 63 -171 210 -171 398 -1 103 3 131 34 290 64 334
244 805 363 952 53 66 158 139 230 161 64 20 173 21 217 2z"/>
<path d="M9675 20015 c-130 -24 -305 -99 -450 -193 -296 -191 -535 -513 -664
 -897 -91 -270 -137 -538 -126 -740 16 -294 96 -510 250 -674 50 -52 85 -78
162 -118 291 -150 561 -162 817 -33 179 89 395 271 522 439 158 209 289 575
344 961 12 85 24 157 26 159 2 2 48 10 101 17 152 20 197 32 265 74 35 21 65
36 67 35 1 -2 -13 -82 -32 -177 -19 -95 -49 -245 -66 -333 -17 -88 -76 -389
 -131 -669 -55 -279 -100 -510 -100 -512 0 -2 165 -3 367 -2 l368 3 12 65 c7
36 37 182 68 325 31 143 65 303 75 355 11 52 44 208 74 345 29 138 84 394 121
570 77 362 63 331 199 441 89 71 151 97 237 98 97 1 130 -36 148 -168 6 -42
16 -86 22 -98 19 -36 92 -60 185 -60 111 0 171 28 269 127 100 99 130 163 130
275 0 72 -4 94 -28 145 -68 145 -180 203 -370 192 -84 -4 -96 -8 -201 -60 -61
 -31 -183 -101 -271 -156 -88 -54 -161 -98 -162 -97 -3 2 33 222 42 264 l5 22
 -383 0 -383 0 -78 -353 -79 -354 -85 -32 c-46 -17 -128 -39 -181 -48 -83 -15
 -103 -15 -145 -3 -26 7 -49 18 -51 24 -1 6 -8 56 -14 111 -21 187 -70 352
 -135 455 -48 75 -149 173 -216 209 -32 18 -94 41 -137 52 -98 26 -289 33 -388
14z m329 -266 c87 -24 172 -142 182 -253 7 -72 -9 -98 -71 -113 -66 -17 -95
 -39 -124 -96 -17 -34 -25 -71 -29 -132 -6 -102 1 -115 87 -171 33 -21 63 -44
65 -51 7 -16 -19 -187 -50 -342 -75 -367 -256 -672 -458 -771 -193 -95 -349
 -11 -386 210 -16 96 -21 339 -9 465 24 261 108 553 233 810 87 181 150 279
219 341 105 94 233 133 341 103z"/>
<path d="M11745 16544 c-258 -49 -637 -114 -1045 -179 -466 -74 -777 -176
-1050 -345 -157 -97 -268 -137 -710 -254 -311 -82 -405 -113 -521 -171 -441
-222 -749 -553 -915 -984 -21 -55 -40 -85 -73 -115 -95 -88 -188 -146 -384
-236 -115 -52 -149 -74 -207 -127 -115 -106 -218 -283 -246 -421 -18 -86 -41
-137 -76 -168 -12 -12 -68 -44 -123 -72 -153 -79 -200 -115 -351 -273 -135
-141 -141 -149 -202 -275 -158 -321 -312 -540 -565 -800 -70 -72 -158 -157
-195 -188 -126 -105 -236 -252 -322 -431 -48 -102 -58 -127 -175 -455 -109
-304 -214 -499 -364 -677 l-60 -71 19 -25 c11 -14 20 -30 20 -36 0 -17 16 -13
68 13 78 40 168 113 216 177 103 136 141 229 237 573 84 302 115 391 174 505
89 173 184 264 428 409 242 145 327 235 430 452 29 63 65 133 79 155 19 31 27
64 36 140 6 56 18 119 26 140 67 182 107 247 231 370 77 79 120 103 210 120
78 15 223 109 354 229 103 95 168 147 281 223 78 53 148 123 358 355 161 180
220 275 338 546 139 319 299 537 513 697 155 116 266 163 1061 445 245 87 553
198 685 248 435 163 813 260 1330 342 385 61 441 71 615 111 227 52 210 45
210 80 0 38 7 39 -335 -27z"/>
<path d="M9976 15245 c-25 -26 -20 -47 39 -160 61 -116 68 -159 36 -212 -11
-17 -29 -34 -40 -38 -23 -7 -95 24 -172 76 -94 62 -164 45 -157 -38 3 -44 4
-44 248 -154 199 -91 243 -89 261 7 8 44 4 72 -42 257 -31 122 -61 222 -73
240 -25 37 -74 48 -100 22z"/>
<path d="M12622 15228 c-20 -20 -13 -56 17 -85 78 -77 235 -281 274 -358 18
-37 23 -55 16 -68 -13 -22 -52 -22 -70 0 -8 9 -42 28 -76 44 -33 15 -78 43
-100 62 -74 66 -135 107 -159 107 -14 0 -42 -16 -67 -39 -79 -72 -119 -78
-228 -31 -81 34 -153 46 -191 31 -16 -6 -36 -27 -48 -50 -38 -76 -78 -79 -176
-13 -77 53 -208 112 -248 112 -65 0 -99 -102 -52 -157 22 -26 29 -27 102 -28
68 0 86 -4 127 -28 27 -16 74 -60 109 -103 67 -82 117 -119 147 -109 22 7 55
71 66 125 17 85 52 98 153 56 73 -31 132 -42 317 -61 225 -22 323 -53 413
-130 38 -33 49 -37 114 -42 65 -5 76 -3 101 17 37 29 37 90 1 163 -109 218
-278 435 -432 555 -55 43 -88 52 -110 30z"/>
<path d="M14213 14735 c-37 -16 -60 -55 -47 -78 5 -8 45 -43 88 -77 108 -86
224 -198 293 -284 100 -124 121 -132 179 -61 66 81 101 73 226 -48 118 -116
135 -127 184 -127 74 0 134 71 134 157 0 49 -97 383 -118 406 -11 13 -24 16
-42 12 -60 -15 -63 -40 -23 -195 37 -140 45 -180 35 -180 -16 0 -72 42 -151
114 -100 92 -137 106 -207 82 -72 -24 -122 -21 -176 13 -25 16 -57 44 -71 62
-29 38 -195 187 -230 206 -28 16 -35 15 -74 -2z"/>
<path d="M12872 14125 c-7 -27 -15 -59 -18 -70 -6 -20 -6 -19 16 1 17 17 21
30 18 70 l-3 49 -13 -50z"/>
<path d="M17880 14077 c-41 -21 -31 -63 79 -317 214 -494 240 -556 246 -584 6
-28 5 -28 -25 -23 -55 11 -134 55 -209 117 -41 34 -88 68 -105 77 -40 21 -108
21 -169 0 -64 -23 -82 -22 -189 12 -51 16 -106 32 -121 35 -43 10 -104 -11
-142 -50 l-35 -35 -183 164 c-342 307 -388 347 -404 347 -27 0 -73 -51 -73
-80 0 -39 21 -62 158 -173 183 -147 288 -244 362 -333 114 -137 133 -154 175
-154 27 0 54 11 92 36 82 55 154 77 248 77 109 1 169 -19 378 -120 158 -77
184 -86 236 -87 74 -1 133 35 162 97 37 82 19 143 -97 338 -163 272 -242 439
-274 575 -19 83 -54 109 -110 81z"/>
<path d="M18692 13417 c-12 -13 -22 -31 -22 -40 0 -9 27 -47 61 -84 80 -89
109 -131 165 -247 43 -89 46 -101 42 -156 -2 -33 -7 -62 -11 -66 -3 -4 -52 37
-109 91 -107 101 -132 118 -185 130 -27 5 -37 2 -58 -19 -14 -14 -25 -35 -25
-46 0 -14 51 -71 151 -168 84 -81 170 -171 191 -200 22 -29 55 -60 74 -69 33
-16 35 -16 59 7 36 34 45 78 45 234 0 159 -13 222 -67 330 -39 78 -132 218
-188 284 -44 50 -87 57 -123 19z"/>
<path d="M4157 10160 c-46 -49 -27 -60 22 -12 35 33 40 42 25 42 -10 0 -32
-13 -47 -30z"/>
<path d="M12193 12378 c-27 -28 -43 -70 -43 -109 0 -39 20 -119 30 -119 24 0
78 54 107 107 30 56 31 63 17 77 -8 9 -26 16 -39 16 -16 0 -29 9 -38 25 l-13
26 -21 -23z"/>
<path d="M8042 12158 c-53 -94 -112 -224 -112 -248 0 -23 18 -36 31 -23 6 6
30 53 53 106 24 52 57 118 75 146 35 58 40 91 13 91 -12 0 -32 -24 -60 -72z"/>
<path d="M6458 11995 c-29 -16 -103 -139 -167 -277 -93 -199 -132 -510 -101
-807 9 -87 9 -96 -9 -115 -35 -39 -50 -84 -65 -192 -18 -136 -27 -159 -71
-185 -64 -38 -34 -100 32 -66 63 33 87 84 102 219 6 53 16 109 23 125 l12 28
4 -25 c2 -14 14 -76 27 -139 23 -113 23 -114 4 -145 -10 -17 -19 -42 -19 -56
0 -37 57 -130 79 -130 13 0 22 -15 35 -62 21 -77 91 -293 157 -485 l49 -143
-39 -78 c-22 -44 -51 -93 -65 -109 -26 -31 -26 -63 0 -63 24 0 67 69 75 123
10 62 28 107 42 107 5 0 24 -16 42 -35 45 -48 67 -117 64 -207 -1 -47 3 -83
11 -98 8 -14 25 -47 38 -73 31 -61 57 -75 113 -58 39 12 40 14 33 44 -16 77
-58 207 -110 344 -117 309 -135 361 -164 468 -17 61 -36 163 -42 227 -10 103
-10 131 7 234 22 144 17 282 -20 529 -14 94 -35 229 -46 300 -53 354 -27 599
76 716 25 27 45 53 45 58 0 37 -99 54 -152 26z"/>
<path d="M7801 11711 c-8 -14 -6 -28 6 -51 l16 -33 19 37 c11 21 17 44 14 52
-8 20 -44 17 -55 -5z"/>
<path d="M11944 11689 c3 -17 6 -36 6 -42 0 -18 29 27 30 44 0 14 -19 29 -37
29 -3 0 -3 -14 1 -31z"/>
<path d="M13056 11678 c-66 -226 -90 -287 -237 -611 -55 -121 -99 -229 -97
-241 3 -24 27 -28 39 -6 21 38 215 475 250 562 48 120 93 274 85 294 -7 17
-35 19 -40 2z"/>
<path d="M6592 11657 c-12 -12 -26 -47 -33 -76 -8 -38 -17 -55 -30 -58 -25 -7
-24 -34 2 -67 16 -20 29 -26 58 -26 72 0 122 68 101 139 -11 38 -56 111 -68
111 -5 0 -18 -10 -30 -23z"/>
<path d="M12048 11669 c-22 -12 -23 -48 -3 -55 17 -7 75 14 75 27 0 8 -40 39
-50 39 -3 0 -13 -5 -22 -11z"/>
<path d="M9308 11588 c-8 -7 -40 -56 -71 -108 -30 -52 -91 -150 -136 -217 -80
-121 -80 -122 -59 -137 21 -15 23 -13 59 37 41 57 192 297 229 365 21 38 22
44 9 57 -12 12 -18 13 -31 3z"/>
<path d="M10955 11568 c-28 -16 -35 -28 -35 -64 0 -44 10 -48 42 -17 41 39 36
104 -7 81z"/>
<path d="M6139 11491 c-37 -29 -84 -120 -70 -134 9 -9 20 -3 44 25 18 20 41
39 52 42 16 5 20 14 19 43 -1 44 -12 50 -45 24z"/>
<path d="M11685 11150 c-24 -36 -101 -200 -94 -200 20 0 79 65 94 104 18 47
18 123 0 96z"/>
<path d="M13868 11139 c-28 -16 -21 -26 20 -34 51 -9 81 -31 98 -71 8 -19 16
-34 19 -34 3 0 5 18 5 41 0 75 -84 132 -142 98z"/>
<path d="M5965 10957 c-46 -46 -68 -137 -33 -137 25 0 71 47 98 101 17 32 30
61 30 64 0 3 -14 5 -31 5 -22 0 -41 -10 -64 -33z"/>
<path d="M8727 10746 c-59 -79 -107 -146 -107 -149 0 -3 5 -18 10 -33 10 -26
13 -23 120 120 61 80 110 152 110 160 0 20 -11 46 -19 46 -4 0 -55 -65 -114
-144z"/>
<path d="M5667 10873 c-2 -4 -4 -48 -3 -98 1 -71 -2 -96 -16 -116 -33 -50 -86
-170 -93 -211 -5 -30 -3 -44 8 -56 22 -21 43 -2 51 46 7 44 63 163 100 211 14
19 22 39 18 45 -4 6 -9 49 -12 96 -5 78 -7 85 -27 88 -11 2 -23 0 -26 -5z"/>
<path d="M7123 10835 c11 -41 18 -159 27 -460 10 -324 21 -431 65 -590 13 -49
58 -215 99 -368 77 -285 101 -345 148 -380 65 -48 184 -27 215 37 16 35 16 37
-5 59 -12 12 -42 28 -67 35 -59 16 -120 78 -139 142 -8 27 -20 101 -26 167 -7
65 -27 179 -45 253 -75 304 -105 488 -105 644 0 46 -8 99 -21 142 -34 111
-170 408 -146 319z"/>
<path d="M10444 10766 c-43 -66 -44 -109 -3 -114 23 -3 33 6 73 70 l47 73 -28
12 c-44 19 -51 16 -89 -41z"/>
<path d="M11136 10740 c-18 -22 -26 -43 -26 -68 0 -57 11 -67 49 -47 45 23 58
55 40 101 -19 49 -31 51 -63 14z"/>
<path d="M13943 10763 c-8 -3 -13 -22 -13 -47 0 -56 -22 -86 -64 -86 -28 0
-35 -5 -40 -25 -12 -49 64 -175 97 -162 25 9 21 44 -9 83 -15 19 -25 36 -23
37 2 2 16 8 32 15 39 17 67 68 67 123 0 25 -5 50 -12 57 -13 13 -16 13 -35 5z"/>
<path d="M12462 10714 c-19 -13 -22 -24 -20 -57 l3 -42 45 4 c25 1 47 5 49 7
6 5 -41 104 -48 104 -4 0 -17 -7 -29 -16z"/>
<path d="M5848 10608 c-2 -89 1 -111 18 -128 24 -25 31 1 25 95 -5 75 -9 90
-23 93 -16 3 -18 -5 -20 -60z"/>
<path d="M8415 10325 c-127 -181 -196 -290 -193 -310 7 -50 36 -22 153 151 66
96 124 181 129 188 10 14 0 66 -13 66 -4 0 -38 -43 -76 -95z"/>
<path d="M11230 10250 c-24 -24 -26 -72 -4 -95 14 -14 19 -14 37 -2 25 16 69
95 61 108 -10 17 -74 9 -94 -11z"/>
<path d="M5886 10238 c-2 -7 -11 -42 -21 -78 -18 -69 -67 -160 -109 -199 -30
-28 -34 -59 -9 -68 24 -9 96 75 139 164 42 86 53 185 21 191 -9 2 -19 -2 -21
-10z"/>
<path d="M13624 10214 c-13 -20 -14 -28 -5 -37 10 -9 18 -6 37 17 20 23 23 31
12 37 -20 13 -26 11 -44 -17z"/>
<path d="M10329 10207 c-13 -7 -34 -34 -47 -60 -36 -76 -15 -86 79 -34 32 17
59 37 59 43 0 7 -15 23 -33 37 -29 22 -37 24 -58 14z"/>
<path d="M5478 10153 c-5 -59 -1 -73 23 -73 17 0 19 8 19 60 0 52 -2 60 -19
60 -15 0 -20 -9 -23 -47z"/>
<path d="M5637 10183 c-3 -5 -12 -37 -21 -72 -15 -57 -15 -66 -2 -80 21 -21
41 -1 55 54 15 61 14 92 -5 99 -20 8 -22 8 -27 -1z"/>
<path d="M13462 10147 c-27 -29 -28 -47 -3 -47 21 0 55 45 46 60 -9 15 -20 12
-43 -13z"/>
<path d="M11176 10048 c-19 -26 -21 -104 -4 -114 15 -10 38 24 38 56 0 14 7
35 15 46 8 12 11 24 8 28 -13 13 -43 5 -57 -16z"/>
<path d="M10121 9924 c-13 -28 -6 -64 11 -64 6 0 19 7 29 16 17 15 17 19 3 45
-18 36 -27 36 -43 3z"/>
<path d="M8021 9826 c-23 -36 -96 -127 -160 -203 -246 -289 -338 -443 -264
-443 12 0 28 20 47 56 37 71 125 189 244 327 111 130 202 251 202 269 -1 7 -6
23 -13 36 -13 22 -14 20 -56 -42z"/>
<path d="M13421 9834 c-11 -15 -18 -30 -15 -35 10 -17 33 -9 53 20 18 25 19
30 5 35 -22 8 -20 9 -43 -20z"/>
<path d="M6357 9832 c-20 -22 -21 -34 -6 -85 6 -22 14 -35 21 -31 19 12 39 75
33 105 -8 33 -25 37 -48 11z"/>
<path d="M7066 9828 c-3 -13 -6 -41 -6 -63 0 -22 -6 -52 -14 -67 -16 -30 -12
-38 20 -38 41 0 49 33 29 116 -10 41 -19 74 -20 74 -1 0 -5 -10 -9 -22z"/>
<path d="M5850 9758 c-42 -21 -45 -26 -45 -63 0 -39 1 -40 39 -43 52 -4 92 14
116 54 43 69 -19 98 -110 52z"/>
<path d="M5666 9719 c-3 -17 -20 -50 -38 -75 -30 -42 -31 -45 -14 -62 17 -16
19 -15 52 23 56 66 70 145 26 145 -14 0 -21 -9 -26 -31z"/>
<path d="M5352 9669 c-35 -34 -41 -69 -17 -93 20 -19 45 -10 45 17 0 11 10 31
22 44 17 18 20 28 12 40 -17 27 -28 25 -62 -8z"/>
<path d="M4685 9642 c-5 -4 -16 -17 -23 -30 -10 -19 -10 -23 3 -28 16 -6 72
12 80 26 6 10 -22 40 -38 40 -7 0 -16 -4 -22 -8z"/>
<path d="M5880 9591 c-12 -23 5 -71 26 -71 7 0 22 14 34 30 18 25 19 34 10 45
-18 21 -57 18 -70 -4z"/>
<path d="M12931 9571 c-13 -24 -14 -61 -1 -81 7 -12 12 -8 23 19 21 50 1 106
-22 62z"/>
<path d="M7131 9546 c-12 -21 -11 -27 8 -47 l21 -23 0 35 c0 50 -13 65 -29 35z"/>
<path d="M10278 9496 c-24 -38 -39 -106 -22 -106 17 0 46 25 60 52 15 29 13
98 -4 98 -4 0 -19 -20 -34 -44z"/>
<path d="M12506 9484 c-9 -24 -7 -74 3 -74 13 0 41 47 41 70 0 24 -35 28 -44
4z"/>
<path d="M9357 9443 c-9 -8 -9 -66 -1 -87 10 -25 34 0 34 34 0 48 -15 72 -33
53z"/>
<path d="M4601 9404 c-24 -31 -26 -53 -8 -78 11 -15 17 -17 35 -7 12 6 24 24
27 39 4 15 10 35 16 44 13 26 12 28 -20 28 -20 0 -36 -9 -50 -26z"/>
<path d="M5276 9408 c-2 -7 -7 -26 -11 -42 -3 -16 -14 -30 -25 -33 -23 -6 -25
-14 -8 -31 19 -19 56 -14 68 8 14 27 9 102 -7 108 -7 2 -15 -2 -17 -10z"/>
<path d="M5920 9396 c-5 -13 -12 -40 -15 -60 -6 -32 -5 -36 13 -36 18 0 27 14
46 73 14 43 -27 66 -44 23z"/>
<path d="M7176 9327 c-9 -23 -16 -46 -16 -50 0 -11 36 -8 64 4 l25 12 -20 38
c-11 22 -23 39 -28 39 -4 0 -16 -19 -25 -43z"/>
<path d="M12092 9343 c-18 -7 45 -73 69 -73 32 0 41 25 18 54 -20 25 -54 33
-87 19z"/>
<path d="M12304 9315 c-9 -23 5 -33 51 -37 37 -3 40 -1 40 22 0 22 -5 25 -43
28 -32 2 -44 -1 -48 -13z"/>
<path d="M7733 9273 c-3 -10 -12 -33 -19 -52 -16 -37 -11 -51 15 -51 23 0 35
14 50 60 10 30 9 37 -6 47 -23 17 -32 16 -40 -4z"/>
<path d="M11827 9272 c-23 -25 -21 -73 4 -126 16 -35 18 -49 10 -65 -16 -29
-13 -116 7 -198 19 -79 32 -99 56 -90 21 8 21 65 1 131 -15 50 -20 118 -9 129
4 3 19 0 35 -8 35 -19 75 -19 82 -1 8 20 -17 51 -53 66 -22 9 -28 16 -21 23
22 22 10 55 -38 105 -28 29 -52 52 -54 52 -2 0 -11 -8 -20 -18z"/>
<path d="M4877 9247 c-23 -23 -67 -123 -67 -152 0 -20 20 -19 49 1 44 31 80
151 51 169 -5 3 -20 -5 -33 -18z"/>
<path d="M8657 9216 l-37 -33 21 -27 c36 -45 80 -32 115 36 32 63 -36 79 -99
24z"/>
<path d="M6112 9183 c-28 -54 -63 -166 -60 -190 3 -24 8 -28 40 -31 30 -3 44
3 74 31 32 29 38 41 42 89 4 47 1 58 -19 80 -32 35 -65 44 -77 21z"/>
<path d="M10149 9157 c-22 -38 -25 -90 -5 -106 30 -25 69 -9 95 37 26 48 24
52 -33 81 l-37 19 -20 -31z"/>
<path d="M9367 9174 c-14 -14 -7 -44 14 -55 26 -14 42 0 37 32 -3 24 -36 38
-51 23z"/>
<path d="M12290 9130 c-18 -14 -38 -19 -70 -17 -42 2 -45 0 -48 -25 -3 -22 3
-30 29 -44 26 -13 39 -14 69 -5 72 21 109 68 78 99 -17 17 -29 15 -58 -8z"/>
<path d="M12140 8910 c-31 -60 -26 -145 8 -133 58 20 78 83 47 143 -20 40 -31
38 -55 -10z"/>
<path d="M7241 8874 c-24 -30 -28 -74 -7 -74 19 0 69 68 62 85 -8 23 -32 18
-55 -11z"/>
<path d="M7881 8791 c-27 -25 -31 -36 -31 -80 0 -28 4 -51 9 -51 16 0 101 99
101 118 0 21 -18 42 -36 42 -7 0 -26 -13 -43 -29z"/>
<path d="M7106 8685 c-15 -25 -41 -52 -57 -61 -34 -17 -28 -39 8 -29 41 10 70
34 88 71 16 34 15 64 -2 64 -4 0 -21 -20 -37 -45z"/>
<path d="M9219 8271 c-19 -20 -29 -40 -29 -60 0 -31 -1 -30 130 -134 40 -31
64 -60 87 -107 36 -73 73 -110 107 -110 13 0 58 16 101 36 137 63 303 94 638
120 72 6 95 12 132 35 69 44 60 72 -40 122 -142 71 -227 72 -339 5 l-71 -43
-141 3 c-151 3 -182 -3 -225 -44 l-27 -25 -50 38 c-27 21 -75 68 -106 105 -83
99 -115 110 -167 59z"/>
<path d="M11120 8260 c-31 -31 -24 -71 29 -177 111 -223 150 -273 211 -273 35
0 163 63 228 111 70 53 132 132 125 159 -16 62 -99 62 -166 1 -63 -58 -117
-91 -147 -91 -54 0 -110 69 -150 185 -29 84 -45 105 -80 105 -17 0 -39 -9 -50
-20z"/>
<path d="M14824 8745 c-34 -34 -30 -75 10 -88 23 -8 32 -6 48 10 20 20 20 20
-1 62 -12 22 -24 41 -27 41 -3 0 -16 -11 -30 -25z"/>
<path d="M14947 8344 c-14 -14 -6 -41 24 -82 57 -77 100 -44 45 35 -32 46 -54
61 -69 47z"/>
<path d="M15410 8145 c0 -17 -16 -20 -25 -5 -10 16 -25 1 -25 -26 0 -19 5 -24
23 -24 29 0 62 34 54 55 -8 19 -27 20 -27 0z"/>
<path d="M15650 8020 c0 -22 76 -41 93 -23 4 3 2 12 -4 20 -13 15 -89 18 -89
3z"/>
<path d="M15154 7856 c-9 -23 14 -152 43 -246 15 -47 59 -148 99 -225 207
-404 204 -400 227 -400 12 0 23 7 25 17 2 9 -29 79 -69 155 -214 410 -237 466
-262 627 -11 71 -15 81 -35 84 -13 2 -25 -3 -28 -12z"/>
<path d="M16002 7797 c-12 -13 -22 -34 -22 -48 0 -32 36 -89 56 -89 14 0 16 9
12 64 -3 35 -10 71 -15 80 -8 15 -11 14 -31 -7z"/>
<path d="M15570 7675 c-29 -35 16 -60 55 -31 16 12 17 16 6 30 -17 20 -45 21
-61 1z"/>
<path d="M15833 7628 c-4 -7 -9 -22 -10 -33 0 -11 -4 -30 -8 -42 -5 -17 -3
-25 10 -30 26 -9 46 24 43 71 -3 41 -20 57 -35 34z"/>
<path d="M15748 7168 c-13 -11 -15 -24 -10 -77 11 -106 63 -107 91 -1 22 80
21 85 -24 88 -22 2 -47 -3 -57 -10z"/>
<path d="M17416 6907 c-16 -12 -17 -17 -6 -36 6 -13 10 -34 7 -47 -6 -35 18
-52 43 -29 34 31 69 102 57 114 -15 15 -79 14 -101 -2z"/>
<path d="M16462 6866 c-44 -48 -55 -93 -28 -115 18 -15 46 -4 46 18 0 10 17
37 37 60 29 34 34 47 26 60 -18 29 -39 23 -81 -23z"/>
<path d="M16733 6868 c-26 -13 -29 -26 -10 -52 10 -14 18 -15 40 -7 27 11 27
11 12 41 -9 16 -17 30 -18 29 -1 0 -12 -5 -24 -11z"/>
<path d="M17135 6738 c-11 -6 -21 -12 -23 -13 -1 -1 2 -14 7 -29 12 -29 28
-33 55 -13 15 11 16 17 5 40 -14 30 -16 31 -44 15z"/>
<path d="M17272 6727 c-16 -17 -22 -36 -22 -70 0 -55 9 -63 43 -36 28 21 43
73 32 108 -8 27 -26 27 -53 -2z"/>
<path d="M16324 6635 c-14 -36 40 -49 69 -17 25 27 21 32 -23 32 -26 0 -43 -5
-46 -15z"/>
<path d="M13956 9464 c-9 -8 -16 -23 -16 -32 0 -10 -6 -27 -14 -38 -14 -19
-13 -20 32 -14 40 4 48 9 50 29 9 59 -19 89 -52 55z"/>
<path d="M13806 8842 c-3 -5 9 -16 26 -26 l30 -18 -17 26 c-18 27 -30 32 -39
18z"/>
<path d="M13788 8772 c-21 -8 -38 -19 -38 -24 0 -20 22 -48 38 -48 9 0 29 -7
45 -14 33 -18 34 -10 9 54 l-17 46 -37 -14z"/>
<path d="M13750 8680 c0 -8 -11 -36 -25 -62 -24 -45 -32 -88 -19 -101 4 -4 21
6 39 21 18 15 39 32 48 37 14 9 13 16 -13 65 -16 30 -29 48 -30 40z"/>
<path d="M14100 8628 l1 -33 19 24 c21 24 19 41 -6 41 -9 0 -14 -11 -14 -32z"/>
<path d="M13536 8578 c-9 -12 -16 -32 -16 -43 0 -11 -6 -32 -14 -47 -16 -30
-12 -38 19 -38 41 0 81 70 70 122 -8 34 -37 37 -59 6z"/>
<path d="M14272 8403 c-50 -106 -59 -144 -39 -161 23 -19 43 -5 57 41 7 23 27
71 45 107 l33 65 -24 18 c-12 9 -25 17 -27 17 -2 0 -22 -39 -45 -87z"/>
<path d="M13553 8325 c4 -8 2 -17 -3 -20 -6 -4 -10 -11 -10 -17 0 -12 68 -4
82 10 18 18 -4 42 -39 42 -27 0 -34 -3 -30 -15z"/>
<path d="M14145 8268 c-11 -6 -22 -12 -24 -14 -2 -2 2 -17 9 -33 12 -30 13
-30 41 -15 29 14 29 15 14 44 -9 17 -17 30 -18 30 -1 0 -11 -6 -22 -12z"/>
<path d="M13482 8238 c-7 -7 -12 -20 -12 -31 0 -10 -4 -27 -10 -37 -7 -13 -6
-21 5 -30 33 -28 69 42 49 94 -7 19 -16 20 -32 4z"/>
<path d="M13887 8183 c-12 -12 -38 -18 -90 -21 -55 -3 -92 -13 -158 -42 -82
-35 -284 -159 -274 -168 10 -10 135 -31 186 -32 69 0 107 23 163 98 38 51 40
52 90 52 104 0 171 39 164 96 -2 24 -8 30 -33 32 -19 2 -37 -4 -48 -15z"/>
<path d="M14026 8026 c-3 -14 -20 -45 -37 -69 -23 -33 -30 -52 -27 -78 l3 -34
48 46 c51 50 60 89 33 138 l-13 24 -7 -27z"/>
<path d="M14438 7943 c-36 -39 -48 -66 -48 -107 0 -41 1 -41 40 -21 42 21 63
67 55 116 -4 21 -10 39 -14 39 -4 0 -19 -12 -33 -27z"/>
<path d="M14586 7609 c-30 -23 -32 -62 -5 -67 16 -3 89 64 89 81 0 15 -59 6
-84 -14z"/>
<path d="M23126 8242 c-13 -15 -17 -45 -20 -143 -4 -147 -23 -233 -72 -334
-39 -80 -104 -150 -151 -161 -17 -5 -44 -1 -73 10 -134 52 -172 48 -247 -29
-28 -29 -70 -87 -93 -129 -23 -42 -49 -83 -57 -91 -24 -24 -51 0 -84 73 -17
37 -36 70 -42 74 -7 5 -43 18 -82 29 -58 18 -84 20 -156 14 -93 -7 -160 5
-193 33 -28 25 -56 92 -56 138 0 30 -6 46 -25 64 l-25 24 -23 -22 c-17 -17
-22 -33 -21 -70 3 -101 22 -269 33 -290 27 -51 108 -65 216 -36 76 20 143 13
201 -21 65 -38 85 -85 85 -193 0 -48 3 -92 7 -98 29 -43 116 -59 144 -26 9 9
39 63 67 119 42 82 66 114 121 166 84 80 146 106 280 116 114 9 134 20 196
107 138 194 229 538 171 649 -24 46 -72 58 -101 27z"/>
<path d="M23906 8065 c-81 -100 -124 -135 -165 -135 -32 0 -83 33 -115 75 -28
37 -70 47 -94 23 -19 -19 -15 -39 27 -124 56 -116 107 -154 192 -140 97 15
167 80 198 181 22 72 45 189 39 205 -2 6 -39 -32 -82 -85z"/>
<path d="M21431 7593 c-13 -10 -34 -55 -51 -103 -41 -123 -74 -193 -110 -234
-52 -59 -98 -49 -320 74 -70 38 -101 38 -149 0 -71 -58 -119 -51 -229 33 -41
31 -64 41 -102 45 -58 5 -70 -9 -46 -55 17 -33 191 -206 223 -222 39 -20 74
-13 114 24 52 46 83 45 167 -5 90 -53 245 -119 296 -126 l41 -6 37 64 c65 114
218 436 218 460 0 17 -41 68 -55 68 -7 0 -22 -8 -34 -17z"/>
<path d="M24766 7057 c-14 -10 -15 -18 -7 -40 12 -31 12 -31 45 -16 21 10 23
15 14 40 -11 32 -25 36 -52 16z"/>
<path d="M24527 6943 c-12 -12 -7 -60 7 -73 21 -16 60 -9 64 13 8 39 -47 85
-71 60z"/>
<path d="M23911 6724 c-35 -45 -24 -104 20 -104 24 0 26 6 30 70 3 44 1 55
-12 58 -9 2 -26 -9 -38 -24z"/>
<path d="M24200 6704 c-13 -33 -3 -88 21 -117 26 -31 35 -12 33 70 -1 61 -3
68 -23 71 -15 3 -24 -4 -31 -24z"/>
<path d="M10877 6890 c-14 -11 -32 -41 -41 -67 -9 -25 -23 -54 -31 -63 -13
-14 -11 -19 14 -43 l29 -27 12 53 c7 28 23 78 36 110 24 61 21 68 -19 37z"/>
<path d="M10648 6513 c-13 -14 -58 -96 -76 -135 -6 -13 52 -8 68 5 32 25 50
62 50 104 0 47 -15 56 -42 26z"/>
<path d="M6496 6184 c-14 -37 -2 -114 19 -114 20 0 45 35 45 63 0 26 -30 67
-49 67 -5 0 -12 -7 -15 -16z"/>
<path d="M10477 6153 c-5 -4 -17 -28 -28 -53 -11 -24 -29 -55 -40 -66 -24 -26
-22 -57 5 -62 41 -8 132 130 109 166 -11 19 -35 27 -46 15z"/>
<path d="M10593 6138 c-20 -25 -36 -89 -25 -100 19 -19 39 -1 52 45 15 57 0
89 -27 55z"/>
<path d="M9661 6074 c-21 -15 -23 -22 -17 -67 8 -68 20 -78 52 -45 22 22 26
32 20 60 -3 19 -12 42 -19 51 -11 16 -14 16 -36 1z"/>
<path d="M7709 5959 c-15 -29 -16 -116 0 -132 8 -8 11 0 11 30 0 22 5 55 11
72 15 42 -3 65 -22 30z"/>
<path d="M7528 5859 c-41 -55 -51 -112 -23 -123 23 -8 43 3 49 28 3 13 19 40
36 61 37 46 36 79 0 83 -20 2 -33 -8 -62 -49z"/>
<path d="M10450 5868 c-11 -18 -20 -40 -20 -48 0 -23 -85 -91 -104 -84 -12 5
-14 15 -10 44 6 34 4 39 -17 45 -17 6 -26 3 -34 -10 -5 -10 -27 -38 -47 -62
-38 -44 -40 -66 -11 -90 16 -12 39 -8 63 13 10 9 20 10 30 4 26 -17 73 -11 97
12 35 32 45 10 40 -85 -3 -60 0 -82 11 -93 22 -23 45 -12 67 31 11 21 27 46
36 55 9 8 21 33 27 55 5 22 13 48 17 57 6 14 -4 20 -54 35 -34 10 -61 24 -61
30 0 7 7 31 16 53 28 69 -9 99 -46 38z"/>
<path d="M12138 5855 c-3 -6 -13 -56 -23 -111 -17 -99 -17 -103 3 -196 27
-124 20 -159 -31 -171 -31 -7 -37 -13 -37 -34 0 -23 3 -25 34 -19 28 5 37 3
45 -13 6 -11 11 -28 11 -39 0 -24 30 -52 57 -52 25 0 53 30 53 57 0 11 -5 34
-11 51 -6 19 -7 46 -2 72 8 39 11 42 87 75 120 52 186 114 141 131 -10 4 -26
-3 -43 -19 -25 -24 -168 -97 -191 -97 -13 0 -16 12 -46 180 -28 158 -38 199
-47 185z"/>
<path d="M11231 5815 c-34 -40 -42 -89 -15 -99 18 -7 44 10 44 28 0 7 11 23
25 36 30 29 30 64 -1 68 -14 2 -32 -9 -53 -33z"/>
<path d="M7253 5813 c-3 -10 -12 -33 -19 -52 -15 -35 -11 -51 11 -51 16 0 50
83 42 105 -8 20 -26 19 -34 -2z"/>
<path d="M10960 5785 c0 -8 -22 -40 -50 -70 -53 -59 -59 -78 -34 -113 26 -37
60 -29 85 21 26 50 33 55 65 49 38 -7 32 39 -12 88 -38 42 -54 50 -54 25z"/>
<path d="M7656 5648 c-28 -39 -15 -118 19 -118 10 0 14 12 13 43 0 23 3 54 7
70 9 34 -16 38 -39 5z"/>
<path d="M12275 5656 c-17 -12 -18 -18 -7 -55 7 -22 16 -41 20 -41 4 0 14 12
22 28 12 20 13 34 6 55 -11 31 -15 32 -41 13z"/>
<path d="M11218 5618 c-20 -28 -23 -38 -14 -60 13 -37 28 -35 59 5 23 30 24
35 11 60 -19 35 -26 34 -56 -5z"/>
<path d="M10116 5538 c-20 -28 -20 -48 -1 -48 18 0 49 45 40 60 -10 16 -22 12
-39 -12z"/>
<path d="M10774 5525 c-7 -17 45 -85 61 -81 6 2 9 16 8 31 -4 49 -56 86 -69
50z"/>
<path d="M10361 5495 c-26 -31 -31 -43 -31 -89 0 -37 6 -61 18 -76 l18 -22 33
71 c54 119 31 194 -38 116z"/>
<path d="M10623 5513 c-17 -6 -16 -38 1 -52 23 -19 67 13 51 39 -6 10 -37 18
-52 13z"/>
<path d="M11431 5381 c-46 -107 -94 -191 -111 -191 -5 0 -16 13 -24 29 -14 27
-14 31 16 77 44 69 60 118 48 149 -13 35 -40 33 -40 -3 0 -16 -11 -49 -25 -73
-14 -24 -34 -63 -45 -86 l-21 -42 21 -40 c11 -22 29 -45 40 -51 32 -17 24 -59
-26 -133 -42 -64 -45 -70 -34 -102 12 -36 71 -95 95 -95 22 0 18 -28 -5 -40
-12 -6 -30 -8 -40 -5 -34 11 -26 -54 13 -111 49 -71 60 -75 101 -35 19 19 45
57 57 85 30 69 53 209 39 235 -17 32 -12 68 20 148 17 41 30 85 30 99 0 19 5
24 25 24 41 0 82 27 94 60 9 26 8 32 -7 37 -9 3 -29 17 -44 31 -15 14 -30 24
-32 21 -8 -9 -65 -146 -72 -174 -4 -16 -18 -43 -31 -59 -13 -15 -30 -41 -39
-57 -8 -16 -19 -29 -26 -29 -20 0 -2 83 29 135 17 28 48 90 69 138 l38 88 -35
35 -35 35 -43 -100z"/>
<path d="M10680 5350 c-6 -11 -13 -49 -17 -85 -5 -54 -3 -65 9 -65 22 0 47 32
54 71 4 19 13 44 20 56 12 20 12 23 -5 33 -30 15 -49 12 -61 -10z"/>
<path d="M9980 5348 c0 -7 5 -20 10 -28 8 -12 10 -9 10 13 0 15 -4 27 -10 27
-5 0 -10 -6 -10 -12z"/>
<path d="M7560 5348 c0 -2 -11 -34 -24 -73 -26 -74 -25 -85 3 -85 13 0 26 16
40 51 25 58 25 102 -1 107 -10 2 -18 2 -18 0z"/>
<path d="M10036 5323 c-6 -14 -5 -15 5 -6 7 7 10 15 7 18 -3 3 -9 -2 -12 -12z"/>
<path d="M10495 5283 c-16 -8 -32 -17 -34 -19 -2 -2 10 -19 27 -38 l30 -34 19
26 c15 22 17 32 9 55 -11 31 -11 31 -51 10z"/>
<path d="M7783 5193 c-75 -86 -85 -109 -56 -120 11 -4 25 3 42 24 115 135 110
127 97 154 l-11 26 -72 -84z"/>
<path d="M11816 5244 c-22 -8 -41 -16 -43 -18 -3 -2 1 -23 7 -46 10 -37 14
-41 33 -35 61 19 63 18 73 -21 11 -45 36 -64 62 -48 24 16 21 102 -5 146 -22
39 -64 46 -127 22z"/>
<path d="M9797 5147 c-3 -7 -3 -26 0 -41 4 -18 -1 -36 -14 -54 -29 -39 -20
-84 23 -122 44 -38 74 -40 74 -5 0 14 -3 25 -7 25 -5 0 -19 9 -32 19 l-24 18
22 47 c23 47 23 85 -1 113 -14 17 -35 16 -41 0z"/>
<path d="M12171 5034 c-69 -57 -171 -230 -171 -288 0 -21 16 -36 40 -36 4 0
28 42 53 93 28 58 66 115 102 154 58 65 67 96 29 101 -12 2 -35 -9 -53 -24z"/>
<path d="M8693 4998 c-26 -13 -29 -26 -10 -52 11 -15 17 -16 39 -6 23 11 25
15 15 41 -13 32 -13 32 -44 17z"/>
<path d="M8876 4917 c-14 -14 -26 -35 -26 -45 0 -21 -24 -45 -55 -56 -20 -7
-20 -8 -1 -22 24 -17 67 -18 88 -1 45 36 61 96 34 132 -13 18 -14 18 -40 -8z"/>
<path d="M8132 4837 c-12 -13 -25 -37 -28 -55 -7 -36 12 -92 31 -92 20 0 44
28 50 58 3 15 12 40 21 56 27 53 -31 79 -74 33z"/>
<path d="M8656 4844 c-20 -20 -21 -58 -1 -74 20 -17 49 -4 42 19 -2 10 0 26 5
36 8 12 6 20 -3 26 -19 12 -25 11 -43 -7z"/>
<path d="M9531 4813 c-6 -12 -11 -31 -11 -42 0 -29 21 -71 36 -71 29 0 33 77
5 111 l-18 23 -12 -21z"/>
<path d="M8917 4784 c-26 -14 -27 -16 -12 -44 14 -27 18 -28 40 -18 28 12 30
23 12 55 -11 20 -14 20 -40 7z"/>
<path d="M9913 4771 c-46 -22 -64 -55 -40 -78 13 -14 21 -12 72 11 50 24 56
30 53 54 -4 34 -29 38 -85 13z"/>
<path d="M11626 4667 c-17 -12 -17 -15 0 -50 19 -40 30 -44 58 -24 17 12 17
15 0 50 -19 40 -30 44 -58 24z"/>
<path d="M9397 4633 c-39 -30 -46 -65 -15 -71 27 -5 90 47 86 72 -4 31 -29 30
-71 -1z"/>
<path d="M10190 4571 c-5 -11 -10 -33 -10 -50 0 -17 -5 -51 -12 -76 -10 -39
-10 -47 4 -61 10 -10 23 -14 37 -9 38 12 69 173 39 203 -18 18 -46 14 -58 -7z"/>
<path d="M9222 4388 c-6 -6 -12 -20 -12 -29 0 -10 -4 -21 -10 -24 -15 -9 -12
-51 4 -65 8 -6 25 -10 38 -8 29 4 68 90 52 116 -14 21 -55 27 -72 10z"/>
<path d="M9210 4172 c0 -6 -20 -34 -45 -62 -25 -28 -45 -59 -45 -68 0 -19 26
-61 32 -52 2 3 22 26 46 52 45 51 53 87 27 122 -8 11 -15 15 -15 8z"/>
<path d="M9485 3839 c-18 -34 -14 -59 9 -59 17 0 26 21 26 61 0 38 -15 37 -35
-2z"/>
<path d="M11661 3683 c-23 -42 -28 -59 -20 -69 17 -21 48 1 70 49 24 54 24 77
0 77 -13 0 -29 -18 -50 -57z"/>
<path d="M10280 3690 c0 -11 78 -90 90 -90 5 0 16 7 25 16 20 20 8 37 -46 65
-41 21 -69 25 -69 9z"/>
<path d="M10158 3603 c-15 -4 -16 -8 -6 -26 6 -12 10 -40 10 -62 -2 -35 12
-78 20 -64 2 2 25 28 52 56 46 48 49 54 38 78 -10 21 -18 25 -54 24 -24 -1
-51 -3 -60 -6z"/>
<path d="M11797 3548 c-46 -57 -77 -109 -77 -130 0 -10 9 -22 21 -28 24 -13
43 -2 65 42 8 16 31 47 50 68 43 47 44 83 3 88 -21 2 -34 -6 -62 -40z"/>
<path d="M10390 3560 c-12 -8 -11 -17 13 -65 15 -30 31 -55 37 -55 19 0 50 40
50 63 0 46 -62 81 -100 57z"/>
<path d="M11484 3518 c-8 -28 18 -48 63 -48 36 0 93 24 93 40 0 15 -38 22 -79
15 -24 -4 -42 -2 -46 4 -10 17 -23 13 -31 -11z"/>
<path d="M10850 3408 c1 -50 27 -133 41 -133 17 0 17 84 0 128 -13 33 -41 36
-41 5z"/>
<path d="M11614 3346 c-3 -8 -1 -23 5 -34 13 -24 10 -27 -87 -77 -85 -44 -107
-75 -97 -135 7 -44 22 -51 75 -37 19 5 55 12 80 17 72 12 152 116 104 134 -11
4 -30 -8 -58 -39 -48 -51 -76 -58 -76 -20 0 20 10 30 50 50 68 35 86 64 71
115 -10 33 -16 40 -37 40 -13 0 -27 -6 -30 -14z"/>
<path d="M11693 3079 l-31 -9 26 -28 c15 -15 34 -37 42 -50 14 -21 16 -22 38
-7 12 9 22 27 22 40 0 13 7 30 15 38 8 8 11 17 8 21 -9 9 -83 6 -120 -5z"/>
<path d="M13411 6296 c-9 -11 -41 -180 -41 -219 0 -6 9 -2 19 7 10 9 31 21 47
25 53 14 58 71 6 79 -18 3 -20 8 -15 63 6 61 3 69 -16 45z"/>
<path d="M14464 5786 c-4 -9 -4 -40 -2 -67 5 -53 36 -98 57 -85 26 17 4 125
-32 155 -14 11 -18 11 -23 -3z"/>
<path d="M14329 5718 c-36 -40 -44 -64 -29 -83 20 -24 47 -17 74 18 28 37 33
66 14 85 -18 18 -26 15 -59 -20z"/>
<path d="M15053 5625 c-21 -57 -15 -78 7 -26 7 18 21 31 33 33 14 2 23 11 25
26 3 18 -1 22 -21 22 -20 0 -27 -9 -44 -55z"/>
<path d="M15298 5629 c-27 -15 -22 -29 10 -29 26 1 62 20 62 34 0 10 -53 6
-72 -5z"/>
<path d="M12937 5523 c-15 -15 -5 -44 23 -64 23 -17 28 -28 24 -46 -7 -28 12
-31 57 -8 25 13 28 19 19 36 -10 18 -97 88 -111 89 -3 0 -9 -3 -12 -7z"/>
<path d="M14376 5495 c-16 -24 -36 -106 -36 -145 0 -22 28 -34 46 -19 7 6 16
27 19 48 4 20 13 53 22 73 9 20 13 44 10 52 -10 24 -43 19 -61 -9z"/>
<path d="M14957 5493 c-39 -27 -44 -44 -27 -88 9 -25 11 -25 39 -11 31 17 41
34 41 74 0 48 -12 54 -53 25z"/>
<path d="M15110 5465 c-17 -21 -5 -45 24 -45 13 0 31 -3 40 -6 12 -5 16 0 16
20 0 40 -55 61 -80 31z"/>
<path d="M15323 5394 c-14 -29 1 -40 40 -30 41 11 52 23 38 40 -21 25 -64 20
-78 -10z"/>
<path d="M14226 5228 c-3 -7 -7 -34 -10 -59 -5 -45 -4 -47 25 -59 40 -17 52
-4 53 60 1 35 -4 54 -14 60 -21 14 -50 12 -54 -2z"/>
<path d="M14660 5056 c0 -2 8 -10 18 -17 15 -13 16 -12 3 4 -13 16 -21 21 -21
13z"/>
<path d="M12690 5000 c0 -20 25 -38 36 -27 8 7 -15 47 -26 47 -6 0 -10 -9 -10
-20z"/>
<path d="M22877 5597 l-29 -12 32 -23 c29 -22 33 -23 56 -8 28 19 29 20 8 40
-18 19 -29 19 -67 3z"/>
<path d="M21462 4732 c-25 -44 -27 -64 -11 -94 11 -20 11 -20 26 1 24 35 32
75 19 105 l-11 28 -23 -40z"/>
<path d="M21333 4568 c-26 -13 -29 -26 -9 -53 12 -17 17 -18 40 -7 26 12 26
13 11 42 -9 16 -17 30 -18 29 -1 0 -12 -5 -24 -11z"/>
<path d="M20048 4432 c-10 -15 -23 -34 -29 -43 -14 -19 -3 -72 14 -66 8 2 54
111 57 135 0 1 -6 2 -12 2 -7 0 -21 -12 -30 -28z"/>
<path d="M17800 4390 c0 -65 22 -120 49 -120 26 0 34 15 16 30 -8 7 -17 28
-20 49 -8 48 -25 91 -36 91 -5 0 -9 -23 -9 -50z"/>
<path d="M21336 4348 c-2 -7 -10 -34 -19 -60 -8 -26 -13 -56 -10 -67 6 -25 43
-29 43 -5 0 9 8 38 17 63 9 26 14 55 10 64 -7 20 -36 23 -41 5z"/>
<path d="M20518 4099 c-37 -36 -27 -55 25 -45 53 10 72 28 58 54 -16 31 -47
27 -83 -9z"/>
<path d="M20420 3956 c0 -8 -3 -21 -6 -30 -7 -19 23 -22 60 -5 21 10 23 15 15
30 -12 23 -69 27 -69 5z"/>
<path d="M13726 3904 c-9 -8 -16 -23 -16 -32 0 -10 -7 -28 -16 -40 -14 -20
-14 -23 2 -29 47 -18 94 35 80 91 -7 29 -27 34 -50 10z"/>
<path d="M19320 3900 c0 -14 36 -115 47 -129 8 -11 33 25 33 48 0 15 5 32 11
38 9 9 -1 18 -40 36 -46 23 -51 24 -51 7z"/>
<path d="M18511 3821 c-10 -6 -12 -20 -8 -47 9 -53 22 -61 40 -24 13 24 14 36
5 56 -12 26 -16 28 -37 15z"/>
<path d="M20322 3785 c-34 -38 -49 -81 -59 -167 -5 -48 -3 -59 11 -64 24 -9
46 14 46 50 0 48 19 108 46 143 28 37 30 58 8 67 -22 8 -18 10 -52 -29z"/>
<path d="M17614 3719 c-16 -26 -8 -126 14 -170 22 -43 22 -44 3 -69 -63 -86
-94 -193 -93 -322 0 -96 4 -108 33 -108 17 0 19 8 19 98 0 138 32 238 101 317
l31 35 -28 41 c-22 32 -29 56 -33 112 -5 56 -10 72 -23 75 -9 2 -20 -2 -24 -9z"/>
<path d="M18960 3675 c-16 -19 -4 -52 26 -72 22 -14 27 -14 40 -1 19 18 11 39
-26 66 -24 18 -30 19 -40 7z"/>
<path d="M19928 3683 c-47 -4 -48 -5 -48 -39 0 -41 11 -64 58 -122 l35 -43 23
22 c13 12 26 34 29 50 8 35 -21 140 -38 137 -7 -1 -33 -3 -59 -5z"/>
<path d="M13753 3564 c-7 -19 14 -67 26 -59 5 3 12 1 16 -5 13 -21 35 -10 35
18 0 48 -62 85 -77 46z"/>
<path d="M18285 3400 c-8 -25 19 -70 40 -70 19 0 19 11 -2 55 -19 40 -29 44
-38 15z"/>
<path d="M17716 3340 c-20 -28 -34 -55 -31 -60 20 -32 85 22 85 69 0 47 -15
45 -54 -9z"/>
<path d="M18794 3376 c-29 -21 -61 -93 -46 -108 14 -14 42 7 42 32 0 12 11 20
35 24 38 7 45 25 19 50 -19 20 -24 20 -50 2z"/>
<path d="M16072 3319 c1 -12 8 -24 15 -26 7 -3 9 3 6 17 -8 29 -25 37 -21 9z"/>
<path d="M18980 3284 c-20 -20 -22 -27 -11 -34 19 -11 37 -3 55 25 27 41 -7
49 -44 9z"/>
<path d="M12897 3294 c-4 -4 -7 -26 -7 -48 0 -40 0 -40 20 -21 25 25 31 68 10
72 -9 2 -19 1 -23 -3z"/>
<path d="M15123 3289 c-18 -18 -3 -39 27 -39 57 0 80 -49 54 -119 -10 -30 -14
-58 -10 -75 l7 -27 29 31 c36 39 70 36 113 -11 16 -17 30 -29 31 -27 2 1 11
18 20 36 16 31 16 34 -8 87 -14 30 -28 66 -32 80 -12 48 -76 80 -113 56 -10
-6 -25 -4 -42 5 -34 17 -61 18 -76 3z"/>
<path d="M14039 3241 c-16 -12 -24 -31 -26 -56 -1 -20 -14 -73 -29 -117 -24
-74 -25 -81 -10 -96 13 -13 20 -14 34 -6 16 11 71 160 72 198 0 11 7 27 15 36
13 14 13 19 -1 38 -19 27 -25 27 -55 3z"/>
<path d="M16604 3233 c-3 -10 -12 -36 -20 -58 l-14 -40 25 28 c15 16 25 40 25
58 0 32 -8 38 -16 12z"/>
<path d="M18217 3166 c-12 -29 71 -143 97 -133 26 10 19 42 -19 87 -19 23 -35
46 -35 51 0 15 -37 10 -43 -5z"/>
<path d="M18955 3160 c-3 -5 8 -37 25 -70 27 -54 33 -60 47 -48 9 7 23 13 32
13 27 0 14 47 -24 83 -34 31 -68 41 -80 22z"/>
<path d="M12641 3125 c-1 -16 -4 -40 -7 -52 -5 -18 -1 -23 20 -29 15 -3 29 -4
32 -1 3 2 -6 29 -20 58 -22 49 -24 51 -25 24z"/>
<path d="M17266 3108 c-44 -63 23 -177 97 -166 46 6 30 80 -34 153 -36 41 -43
42 -63 13z"/>
<path d="M13813 3098 c-38 -42 -40 -98 -4 -98 23 0 41 20 41 45 0 11 7 30 15
42 13 19 13 22 -1 27 -24 9 -29 8 -51 -16z"/>
<path d="M15032 3068 c-15 -15 -15 -37 1 -63 12 -19 13 -19 44 13 28 28 30 34
17 47 -19 18 -46 19 -62 3z"/>
<path d="M13281 2963 c-18 -39 -26 -139 -12 -147 12 -8 71 78 71 102 0 16 -31
72 -41 72 -3 0 -11 -12 -18 -27z"/>
<path d="M15846 2913 c13 -60 92 -94 138 -60 16 12 16 14 -6 34 -33 31 -79 53
-111 53 -25 0 -27 -3 -21 -27z"/>
<path d="M18023 2907 c-24 -10 -28 -23 -17 -51 7 -19 24 -20 48 -3 16 12 17
16 5 39 -12 22 -17 24 -36 15z"/>
<path d="M15240 2853 c-23 -46 -29 -108 -12 -125 6 -6 18 2 31 18 16 20 21 41
21 85 0 32 -4 60 -8 63 -5 3 -19 -16 -32 -41z"/>
<path d="M15505 2875 c-29 -28 -35 -98 -11 -130 19 -26 41 -7 49 41 4 20 14
45 23 55 16 18 16 20 -1 39 -23 26 -31 25 -60 -5z"/>
<path d="M17200 2862 c-21 -17 -44 -97 -33 -115 3 -5 14 0 25 10 58 53 66 152
8 105z"/>
<path d="M16260 2834 c0 -21 25 -63 33 -54 3 3 -3 21 -13 40 -15 27 -19 30
-20 14z"/>
<path d="M13837 2829 c-17 -10 -16 -13 12 -30 38 -23 42 -23 66 -5 42 30 -31
62 -78 35z"/>
<path d="M14684 2816 c-3 -8 0 -25 7 -38 7 -13 16 -45 19 -73 3 -35 9 -50 20
-50 20 0 26 87 9 127 -15 36 -47 56 -55 34z"/>
<path d="M15042 2808 c-7 -7 -12 -22 -12 -34 0 -12 -7 -27 -15 -34 -13 -11
-22 -60 -11 -60 2 0 11 -3 19 -6 20 -7 67 61 67 98 0 32 -30 54 -48 36z"/>
<path d="M13372 2767 c-17 -18 -22 -36 -22 -80 0 -68 9 -74 79 -61 42 8 48 14
73 59 28 52 28 65 0 65 -9 0 -28 9 -42 20 -33 26 -62 25 -88 -3z"/>
<path d="M16278 2661 c-16 -29 -16 -30 9 -47 25 -16 27 -16 44 7 24 31 23 36
-1 44 -11 3 -20 11 -20 16 0 18 -15 8 -32 -20z"/>
<path d="M15893 2641 c-7 -11 -29 -21 -57 -25 -25 -4 -48 -11 -50 -15 -3 -4 4
-22 14 -39 17 -28 25 -32 64 -32 62 0 76 8 76 40 0 31 -19 90 -29 90 -3 0 -11
-8 -18 -19z"/>
<path d="M13694 2605 c-9 -23 31 -64 47 -48 6 6 9 21 7 34 -4 29 -45 39 -54
14z"/>
<path d="M13840 2595 c0 -26 30 -75 45 -75 19 0 19 23 0 60 -16 32 -45 41 -45
15z"/>
<path d="M14576 2558 c-18 -27 -15 -88 4 -88 17 0 32 59 23 87 l-10 28 -17
-27z"/>
</g>
</svg>
